<?xml version="1.0" encoding="UTF-8" standalone="no"?>
<svg width="135px" height="40px" viewBox="0 0 135 40" version="1.1" xmlns="http://www.w3.org/2000/svg" xmlns:xlink="http://www.w3.org/1999/xlink">
    <!-- Generator: Sketch 48.2 (47327) - http://www.bohemiancoding.com/sketch -->
    <title>apple-store</title>
    <desc>Created with Sketch.</desc>
    <defs></defs>
    <g id="Symbols" stroke="none" stroke-width="1" fill="none" fill-rule="evenodd">
        <g id="apple-store" fill-rule="nonzero">
            <g>
                <path d="M130.197,40 L4.729,40 C2.122,40 0,37.872 0,35.268 L0,4.726 C0,2.12 2.122,0 4.729,0 L130.197,0 C132.803,0 135,2.12 135,4.726 L135,35.268 C135,37.872 132.803,40 130.197,40 Z" id="Shape" fill="#A6A6A6"></path>
                <path d="M134.032,35.268 C134.032,37.384 132.318,39.098 130.198,39.098 L4.729,39.098 C2.61,39.098 0.89,37.384 0.89,35.268 L0.89,4.725 C0.89,2.61 2.61,0.89 4.729,0.89 L130.197,0.89 C132.318,0.89 134.031,2.61 134.031,4.725 L134.032,35.268 Z" id="Shape" fill="#000000"></path>
                <g id="Group" transform="translate(12.000000, 5.000000)" fill="#FFFFFF">
                    <g transform="translate(0.000000, 1.000000)" id="Shape">
                        <path d="M18.128,13.784 C18.099,10.561 20.767,8.993 20.889,8.92 C19.378,6.717 17.036,6.416 16.213,6.392 C14.246,6.185 12.338,7.569 11.336,7.569 C10.314,7.569 8.771,6.412 7.108,6.446 C4.968,6.479 2.966,7.718 1.868,9.642 C-0.398,13.565 1.292,19.33 3.463,22.501 C4.549,24.055 5.818,25.788 7.479,25.727 C9.104,25.661 9.711,24.692 11.672,24.692 C13.615,24.692 14.185,25.727 15.879,25.688 C17.623,25.661 18.721,24.128 19.769,22.561 C21.024,20.782 21.528,19.028 21.548,18.938 C21.507,18.924 18.161,17.646 18.128,13.784 Z"></path>
                        <path d="M14.928,4.306 C15.802,3.213 16.4,1.726 16.234,0.217 C14.969,0.273 13.387,1.092 12.476,2.161 C11.67,3.103 10.95,4.647 11.136,6.099 C12.557,6.205 14.016,5.382 14.928,4.306 Z"></path>
                    </g>
                    <g transform="translate(32.000000, 0.000000)" id="Shape">
                        <path d="M10.023,12.179 L8.017,12.179 L6.917,8.724 L3.096,8.724 L2.049,12.179 L0.094,12.179 L3.881,0.418 L6.219,0.418 L10.023,12.179 Z M6.586,7.275 L5.591,4.204 C5.487,3.89 5.288,3.151 4.998,1.988 L4.963,1.988 C4.846,2.488 4.66,3.227 4.404,4.204 L3.427,7.275 L6.586,7.275 Z"></path>
                        <path d="M19.742,7.833 C19.742,9.276 19.351,10.416 18.566,11.253 C17.865,11.998 16.994,12.37 15.953,12.37 C14.828,12.37 14.021,11.969 13.531,11.166 L13.531,15.616 L11.646,15.616 L11.646,6.486 C11.646,5.58 11.623,4.651 11.576,3.698 L13.234,3.698 L13.339,5.042 L13.373,5.042 C14.002,4.03 14.955,3.523 16.234,3.523 C17.236,3.523 18.07,3.919 18.74,4.71 C19.408,5.501 19.742,6.542 19.742,7.833 Z M17.824,7.903 C17.824,7.077 17.636,6.397 17.265,5.861 C16.857,5.303 16.31,5.024 15.624,5.024 C15.159,5.024 14.737,5.178 14.358,5.486 C13.979,5.794 13.733,6.198 13.616,6.699 C13.557,6.931 13.53,7.124 13.53,7.275 L13.53,8.689 C13.53,9.306 13.718,9.826 14.096,10.251 C14.475,10.676 14.965,10.888 15.571,10.888 C16.28,10.888 16.833,10.615 17.229,10.068 C17.625,9.521 17.824,8.799 17.824,7.903 Z"></path>
                        <path d="M29.497,7.833 C29.497,9.276 29.105,10.416 28.32,11.253 C27.619,11.998 26.748,12.37 25.707,12.37 C24.583,12.37 23.776,11.969 23.285,11.166 L23.285,15.616 L21.4,15.616 L21.4,6.486 C21.4,5.58 21.377,4.651 21.331,3.698 L22.988,3.698 L23.092,5.042 L23.127,5.042 C23.755,4.03 24.709,3.523 25.988,3.523 C26.988,3.523 27.823,3.919 28.493,4.71 C29.162,5.501 29.497,6.542 29.497,7.833 Z M27.578,7.903 C27.578,7.077 27.39,6.397 27.019,5.861 C26.611,5.303 26.064,5.024 25.377,5.024 C24.912,5.024 24.49,5.178 24.112,5.486 C23.733,5.794 23.486,6.198 23.37,6.699 C23.311,6.931 23.283,7.124 23.283,7.275 L23.283,8.689 C23.283,9.306 23.471,9.826 23.85,10.251 C24.227,10.676 24.72,10.888 25.324,10.888 C26.034,10.888 26.587,10.615 26.981,10.068 C27.378,9.521 27.578,8.799 27.578,7.903 Z"></path>
                        <path d="M42.759,8.881 C42.759,9.881 42.41,10.695 41.714,11.324 C40.948,12.011 39.88,12.353 38.512,12.353 C37.246,12.353 36.231,12.109 35.465,11.62 L35.901,10.05 C36.727,10.539 37.634,10.783 38.625,10.783 C39.334,10.783 39.888,10.623 40.282,10.303 C40.678,9.983 40.876,9.556 40.876,9.021 C40.876,8.544 40.713,8.143 40.388,7.817 C40.062,7.491 39.521,7.189 38.765,6.909 C36.705,6.141 35.676,5.019 35.676,3.541 C35.676,2.576 36.039,1.785 36.767,1.168 C37.495,0.551 38.456,0.243 39.656,0.243 C40.726,0.243 41.615,0.429 42.326,0.801 L41.85,2.337 C41.184,1.977 40.432,1.796 39.59,1.796 C38.925,1.796 38.404,1.959 38.031,2.285 C37.716,2.576 37.558,2.931 37.558,3.349 C37.558,3.814 37.738,4.198 38.099,4.501 C38.412,4.78 38.982,5.083 39.808,5.408 C40.82,5.815 41.566,6.292 42.041,6.839 C42.52,7.386 42.759,8.066 42.759,8.881 Z"></path>
                        <path d="M49.006,5.111 L46.93,5.111 L46.93,9.229 C46.93,10.276 47.296,10.8 48.03,10.8 C48.367,10.8 48.645,10.771 48.868,10.713 L48.92,12.144 C48.548,12.283 48.06,12.353 47.454,12.353 C46.71,12.353 46.128,12.126 45.71,11.673 C45.291,11.219 45.081,10.457 45.081,9.387 L45.081,5.112 L43.843,5.112 L43.843,3.698 L45.081,3.698 L45.081,2.145 L46.931,1.587 L46.931,3.698 L49.008,3.698 L49.006,5.111 Z"></path>
                        <path d="M58.357,7.869 C58.357,9.172 57.984,10.242 57.241,11.08 C56.462,11.941 55.427,12.371 54.137,12.371 C52.891,12.371 51.899,11.958 51.16,11.132 C50.421,10.306 50.052,9.265 50.052,8.008 C50.052,6.694 50.434,5.617 51.196,4.779 C51.959,3.942 52.985,3.523 54.276,3.523 C55.52,3.523 56.52,3.936 57.278,4.762 C57.997,5.565 58.357,6.601 58.357,7.869 Z M56.402,7.912 C56.402,7.135 56.234,6.468 55.896,5.911 C55.5,5.239 54.937,4.902 54.205,4.902 C53.448,4.902 52.873,5.238 52.476,5.911 C52.138,6.468 51.97,7.147 51.97,7.947 C51.97,8.724 52.138,9.391 52.476,9.948 C52.883,10.621 53.455,10.957 54.187,10.957 C54.909,10.957 55.472,10.615 55.878,9.931 C56.229,9.362 56.402,8.689 56.402,7.912 Z"></path>
                        <path d="M64.482,5.356 C64.295,5.321 64.097,5.304 63.888,5.304 C63.226,5.304 62.712,5.554 62.353,6.054 C62.04,6.496 61.881,7.055 61.881,7.729 L61.881,12.179 L59.996,12.179 L59.996,6.368 C59.996,5.39 59.977,4.501 59.942,3.698 L61.584,3.698 L61.653,5.321 L61.706,5.321 C61.903,4.763 62.218,4.315 62.647,3.978 C63.067,3.675 63.52,3.524 64.008,3.524 C64.184,3.524 64.339,3.536 64.479,3.559 L64.479,5.356 L64.482,5.356 Z"></path>
                        <path d="M72.91,7.537 C72.91,7.874 72.887,8.16 72.841,8.392 L67.188,8.392 C67.21,9.229 67.485,9.87 68.007,10.311 C68.485,10.707 69.102,10.904 69.858,10.904 C70.696,10.904 71.458,10.771 72.143,10.503 L72.44,11.812 C71.637,12.161 70.69,12.335 69.596,12.335 C68.282,12.335 67.248,11.948 66.498,11.174 C65.747,10.401 65.372,9.362 65.372,8.059 C65.372,6.78 65.723,5.715 66.419,4.866 C67.152,3.959 68.141,3.505 69.387,3.505 C70.608,3.505 71.533,3.959 72.16,4.866 C72.66,5.589 72.91,6.479 72.91,7.537 Z M71.113,7.048 C71.125,6.49 71.003,6.007 70.747,5.6 C70.421,5.077 69.921,4.815 69.246,4.815 C68.63,4.815 68.129,5.071 67.745,5.583 C67.432,5.991 67.245,6.479 67.187,7.049 L71.113,7.048 Z"></path>
                    </g>
                    <g transform="translate(31.000000, 18.000000)" id="Shape">
                        <path d="M3.313,3.928 C3.524,3.05 3.676,2.137 3.781,1.225 L4.788,1.354 C4.671,2.184 4.507,3.028 4.309,3.858 C4.613,3.836 4.882,3.824 5.105,3.824 C6.709,3.824 7.434,4.667 7.434,6.422 C7.434,8.213 7.118,9.806 6.685,10.521 C6.333,11.092 5.924,11.303 5.175,11.303 C4.624,11.303 3.981,11.221 3.478,11.105 L3.548,10.158 C4.004,10.31 4.577,10.381 4.976,10.381 C5.42,10.381 5.608,10.311 5.819,9.994 C6.193,9.443 6.439,8.039 6.439,6.459 C6.439,5.184 6.052,4.751 5.046,4.751 C4.765,4.751 4.438,4.763 4.086,4.786 C3.442,7.15 2.553,9.327 1.523,10.812 L0.634,10.333 C1.628,8.987 2.494,7.032 3.079,4.867 C2.271,4.96 1.43,5.089 0.692,5.229 L0.516,4.292 C1.348,4.15 2.377,4.021 3.313,3.928 Z M10.991,7.965 L9.984,8.211 C9.785,6.678 9.106,4.934 7.842,3.647 L8.661,3.122 C10.02,4.525 10.78,6.467 10.991,7.965 Z"></path>
                        <path d="M13.762,7.24 C14.932,6.42 16.395,5.859 17.648,5.859 C19.461,5.859 20.562,6.736 20.562,8.246 C20.562,10.119 19.029,11.301 15.389,11.301 C15.237,11.301 15.026,11.301 14.838,11.289 L14.628,10.342 C14.908,10.354 15.26,10.365 15.482,10.365 C18.409,10.365 19.532,9.533 19.532,8.269 C19.532,7.24 18.853,6.701 17.437,6.701 C16.231,6.701 14.85,7.369 13.528,8.515 L12.72,8.162 C12.72,5.635 12.99,4.418 13.879,3.141 L14.803,3.455 C13.983,4.595 13.762,5.66 13.762,7.24 Z M13.656,2.137 L13.914,1.201 C15.54,1.447 17.998,1.996 19.157,2.418 L18.887,3.343 C17.834,2.934 15.248,2.336 13.656,2.137 Z"></path>
                        <path d="M25.264,5.191 C26.118,5.67 27.231,6.396 28.016,6.994 C28.729,5.941 29.208,4.759 29.454,3.576 L25.674,3.576 C24.82,4.933 23.707,6.267 22.619,7.123 L21.835,6.455 C23.462,5.273 25.064,2.969 25.744,1.213 L26.726,1.552 C26.585,1.905 26.411,2.266 26.21,2.653 L29.98,2.653 L30.728,3.063 C29.91,6.832 27.698,9.992 24.281,11.373 L23.567,10.508 C25.124,9.935 26.411,8.976 27.393,7.816 C26.61,7.172 25.452,6.4 24.631,5.957 L25.264,5.191 Z M29.887,0.826 C30.367,1.306 30.741,1.808 31.116,2.394 L30.589,2.769 C30.238,2.195 29.852,1.667 29.384,1.211 L29.887,0.826 Z M31.408,0.486 C31.898,0.978 32.262,1.482 32.625,2.078 L32.075,2.441 C31.748,1.843 31.361,1.33 30.892,0.849 L31.408,0.486 Z"></path>
                        <path d="M37.434,3.261 L37.434,1.237 L38.498,1.237 L38.498,3.261 L41.562,3.261 L42.453,3.623 C42.161,7.193 40.756,9.967 37.012,11.324 L36.367,10.412 C39.82,9.241 41.06,6.935 41.236,4.232 L34.986,4.232 L34.986,6.922 L33.933,6.922 L33.933,3.26 L37.434,3.261 Z"></path>
                        <path d="M48.255,4.35 L47.565,5.204 C46.921,4.631 45.516,3.611 44.545,3.098 L45.2,2.255 C46.207,2.84 47.529,3.752 48.255,4.35 Z M52.762,4.373 L53.44,5.168 C51.836,7.777 48.547,10.272 45.354,11.219 L44.827,10.213 C47.95,9.416 51.204,6.994 52.762,4.373 Z"></path>
                        <path d="M63.924,2.723 L63.924,10.577 L55.569,10.577 L55.569,2.723 L63.924,2.723 Z M62.848,9.568 L62.848,3.705 L56.62,3.705 L56.62,9.568 L62.848,9.568 Z"></path>
                        <polygon points="75.857 5.754 75.857 6.83 66.331 6.83 66.331 5.754"></polygon>
                        <path d="M85.288,7.428 L84.609,8.293 C83.357,7.381 81.496,6.339 79.963,5.613 L79.963,11.301 L78.887,11.301 L78.887,1.236 L79.963,1.236 L79.963,4.478 C81.625,5.238 83.79,6.42 85.288,7.428 Z M82.562,2.477 C82.982,2.912 83.404,3.496 83.72,4.035 L83.204,4.362 C82.924,3.836 82.477,3.216 82.081,2.805 L82.562,2.477 Z M83.79,1.739 C84.2,2.172 84.633,2.746 84.961,3.284 L84.445,3.611 C84.165,3.107 83.708,2.488 83.31,2.078 L83.79,1.739 Z"></path>
                    </g>
                </g>
            </g>
        </g>
    </g>
</svg>