<?xml version="1.0" encoding="UTF-8" standalone="no"?>
<svg width="135px" height="40px" viewBox="0 0 135 40" version="1.1" xmlns="http://www.w3.org/2000/svg" xmlns:xlink="http://www.w3.org/1999/xlink">
    <!-- Generator: Sketch 48.2 (47327) - http://www.bohemiancoding.com/sketch -->
    <title>google-play</title>
    <desc>Created with Sketch.</desc>
    <defs>
        <linearGradient x1="90.7661538%" y1="4.8392%" x2="-38.3292308%" y2="71.9688%" id="linearGradient-1">
            <stop stop-color="#00A0FF" offset="0%"></stop>
            <stop stop-color="#00A1FF" offset="0.657445%"></stop>
            <stop stop-color="#00BEFF" offset="26.01%"></stop>
            <stop stop-color="#00D2FF" offset="51.22%"></stop>
            <stop stop-color="#00DFFF" offset="76.04%"></stop>
            <stop stop-color="#00E3FF" offset="100%"></stop>
        </linearGradient>
        <linearGradient x1="107.727094%" y1="49.4305882%" x2="-130.66601%" y2="49.4305882%" id="linearGradient-2">
            <stop stop-color="#FFE000" offset="0%"></stop>
            <stop stop-color="#FFBD00" offset="40.87%"></stop>
            <stop stop-color="#FFA500" offset="77.54%"></stop>
            <stop stop-color="#FF9C00" offset="100%"></stop>
        </linearGradient>
        <linearGradient x1="86.3886228%" y1="17.8158218%" x2="-49.8886228%" y2="194.393566%" id="linearGradient-3">
            <stop stop-color="#FF3A44" offset="0%"></stop>
            <stop stop-color="#C31162" offset="100%"></stop>
        </linearGradient>
        <linearGradient x1="-18.5796407%" y1="-54.525874%" x2="42.2742515%" y2="24.6908814%" id="linearGradient-4">
            <stop stop-color="#32A071" offset="0%"></stop>
            <stop stop-color="#2DA771" offset="6.85%"></stop>
            <stop stop-color="#15CF74" offset="47.62%"></stop>
            <stop stop-color="#06E775" offset="80.09%"></stop>
            <stop stop-color="#00F076" offset="100%"></stop>
        </linearGradient>
    </defs>
    <g id="google-play" stroke="none" stroke-width="1" fill="none" fill-rule="evenodd">
        <g fill-rule="nonzero">
            <g id="artwork">
                <g id="Group">
                    <path d="M130,40 L5,40 C2.2,40 0,37.8 0,35 L0,5 C0,2.2 2.2,0 5,0 L130,0 C132.8,0 135,2.2 135,5 L135,35 C135,37.8 132.8,40 130,40 Z" id="Shape" fill="#000000"></path>
                    <path d="M130,0.8 C132.3,0.8 134.2,2.7 134.2,5 L134.2,35 C134.2,37.3 132.3,39.2 130,39.2 L5,39.2 C2.7,39.2 0.8,37.3 0.8,35 L0.8,5 C0.8,2.7 2.7,0.8 5,0.8 L130,0.8 Z M130,0 L5,0 C2.2,0 0,2.3 0,5 L0,35 C0,37.8 2.2,40 5,40 L130,40 C132.8,40 135,37.8 135,35 L135,5 C135,2.3 132.8,0 130,0 Z" id="Shape" fill="#A6A6A6"></path>
                    <path d="M64.7,12.8 C62.6,12.8 61,14.4 61,16.5 C61,18.6 62.7,20.2 64.7,20.2 C66.8,20.2 68.4,18.6 68.4,16.5 C68.5,14.4 66.8,12.8 64.7,12.8 Z M64.7,18.8 C63.6,18.8 62.6,17.9 62.6,16.5 C62.6,15.2 63.6,14.2 64.7,14.2 C65.8,14.2 66.8,15.1 66.8,16.5 C66.8,17.8 65.9,18.8 64.7,18.8 Z M56.6,12.8 C54.5,12.8 52.9,14.4 52.9,16.5 C52.9,18.6 54.6,20.2 56.6,20.2 C58.7,20.2 60.3,18.6 60.3,16.5 C60.3,14.4 58.6,12.8 56.6,12.8 Z M56.6,18.8 C55.5,18.8 54.5,17.9 54.5,16.5 C54.5,15.2 55.5,14.2 56.6,14.2 C57.7,14.2 58.7,15.1 58.7,16.5 C58.7,17.8 57.7,18.8 56.6,18.8 Z M46.9,13.9 L46.9,15.5 L50.7,15.5 C50.6,16.4 50.3,17 49.8,17.5 C49.3,18 48.4,18.7 46.9,18.7 C44.6,18.7 42.8,16.8 42.8,14.5 C42.8,12.2 44.6,10.3 46.9,10.3 C48.2,10.3 49.1,10.8 49.7,11.4 L50.8,10.3 C49.9,9.4 48.6,8.7 46.8,8.7 C43.6,8.7 40.9,11.3 40.9,14.5 C40.9,17.7 43.6,20.3 46.8,20.3 C48.5,20.3 49.8,19.7 50.8,18.7 C51.8,17.7 52.2,16.2 52.2,15 C52.2,14.6 52.2,14.3 52.1,14 L46.9,14 L46.9,13.9 Z M86.5,15.2 C86.2,14.4 85.2,12.8 83.3,12.8 C81.4,12.8 79.8,14.3 79.8,16.5 C79.8,18.6 81.4,20.2 83.5,20.2 C85.2,20.2 86.2,19.2 86.6,18.6 L85.3,17.8 C84.9,18.4 84.3,18.8 83.5,18.8 C82.7,18.8 82.1,18.4 81.7,17.7 L86.7,15.6 L86.5,15.2 Z M81.4,16.4 C81.4,15 82.5,14.2 83.3,14.2 C83.9,14.2 84.5,14.5 84.7,15 L81.4,16.4 Z M77.4,20 L79,20 L79,9.1 L77.4,9.1 L77.4,20 Z M74.7,13.6 C74.3,13.2 73.6,12.8 72.7,12.8 C70.8,12.8 69.1,14.4 69.1,16.5 C69.1,18.6 70.8,20.2 72.7,20.2 C73.6,20.2 74.3,19.8 74.7,19.4 L74.8,19.4 L74.8,19.9 C74.8,21.3 74,22.1 72.8,22.1 C71.8,22.1 71.2,21.4 70.9,20.8 L69.5,21.4 C69.9,22.4 71,23.6 72.8,23.6 C74.7,23.6 76.3,22.5 76.3,19.7 L76.3,13 L74.8,13 L74.8,13.6 L74.7,13.6 Z M72.8,18.8 C71.7,18.8 70.7,17.9 70.7,16.6 C70.7,15.3 71.6,14.3 72.8,14.3 C73.9,14.3 74.8,15.3 74.8,16.6 C74.8,17.8 74,18.8 72.8,18.8 Z M94.2,9.1 L90.3,9.1 L90.3,20 L91.9,20 L91.9,15.9 L94.2,15.9 C96,15.9 97.8,14.6 97.8,12.5 C97.8,10.4 96,9.1 94.2,9.1 Z M94.2,14.3 L91.9,14.3 L91.9,10.6 L94.2,10.6 C95.4,10.6 96.1,11.6 96.1,12.5 C96.1,13.3 95.4,14.3 94.2,14.3 Z M104.3,12.8 C103.1,12.8 101.9,13.3 101.4,14.5 L102.8,15.1 C103.1,14.5 103.7,14.3 104.3,14.3 C105.1,14.3 106,14.8 106,15.7 L106,15.8 C105.7,15.6 105.1,15.4 104.3,15.4 C102.7,15.4 101.2,16.3 101.2,17.9 C101.2,19.4 102.5,20.3 103.9,20.3 C105,20.3 105.6,19.8 106,19.2 L106.1,19.2 L106.1,20 L107.7,20 L107.7,15.8 C107.6,13.9 106.1,12.8 104.3,12.8 Z M104.1,18.8 C103.6,18.8 102.8,18.5 102.8,17.9 C102.8,17.1 103.7,16.7 104.5,16.7 C105.2,16.7 105.6,16.9 106,17.1 C105.9,18 105,18.8 104.1,18.8 Z M113.3,13 L111.4,17.7 L111.3,17.7 L109.4,13 L107.6,13 L110.5,19.6 L108.8,23.3 L110.5,23.3 L115,13 L113.3,13 Z M98.6,20 L100.2,20 L100.2,9.1 L98.6,9.1 L98.6,20 Z" id="Shape" fill="#FFFFFF"></path>
                    <g transform="translate(10.000000, 7.000000)" id="Shape">
                        <path d="M0.4,0.5 C0.1,0.8 0,1.3 0,1.9 L0,24 C0,24.6 0.2,25.1 0.5,25.4 L0.6,25.5 L13,13.1 L13,13 L13,12.9 L0.4,0.5 Z" fill="url(#linearGradient-1)"></path>
                        <path d="M17,17.3 L12.9,13.2 L12.9,13 L12.9,12.9 L17,8.8 L17.1,8.9 L22,11.7 C23.4,12.5 23.4,13.8 22,14.6 L17,17.3 Z" fill="url(#linearGradient-2)"></path>
                        <path d="M17.1,17.2 L12.9,13 L0.4,25.5 C0.9,26 1.6,26 2.5,25.6 L17.1,17.2" fill="url(#linearGradient-3)"></path>
                        <path d="M17.1,8.8 L2.5,0.5 C1.6,-2.77555756e-17 0.9,0.1 0.4,0.6 L12.9,13 L17.1,8.8 Z" fill="url(#linearGradient-4)"></path>
                        <g transform="translate(0.000000, 17.000000)" fill="#000000">
                            <path d="M17,0.1 L2.5,8.3 C1.7,8.8 1,8.7 0.5,8.3 L0.4,8.4 L0.5,8.5 C1,8.9 1.7,9 2.5,8.5 L17,0.1 Z" opacity="0.2"></path>
                            <path d="M0.4,8.3 C0.1,8 0,7.5 0,6.9 L0,7 C0,7.6 0.2,8.1 0.5,8.4 L0.5,8.3 L0.4,8.3 Z" opacity="0.12"></path>
                        </g>
                        <path d="M22,14.3 L17,17.1 L17.1,17.2 L22,14.4 C22.7,14 23,13.5 23,13 C23,13.5 22.6,13.9 22,14.3 Z" fill="#000000" opacity="0.12"></path>
                        <path d="M2.5,0.6 L22,11.7 C22.6,12.1 23,12.5 23,13 C23,12.5 22.7,12 22,11.6 L2.5,0.5 C1.1,-0.3 0,0.3 0,1.9 L0,2 C0,0.5 1.1,-0.2 2.5,0.6 Z" fill="#FFFFFF" opacity="0.25"></path>
                    </g>
                </g>
            </g>
            <g id="Layer_3" transform="translate(41.000000, 25.000000)" fill="#FFFFFF" stroke="#FFFFFF" stroke-width="0.2">
                <g id="Group">
                    <path d="M0.8,2 C1.4,1.9 3.1,1.8 4.7,1.6 C5.7,1.5 6.5,1.5 7.1,1.4 L7.1,2.1 C6.6,2.1 5.8,2.1 5.4,2.2 C4.1,2.6 3.4,4 3.4,5 C3.4,6.7 5,7.3 6.5,7.3 L6.2,8.1 C4.6,8 2.7,7.1 2.7,5.2 C2.7,3.8 3.5,2.7 4.4,2.2 C3.6,2.3 1.2,2.5 0.2,2.7 L0,2.1 C0.4,2.1 0.6,2 0.8,2 Z M6.6,4.6 L6.1,4.8 C5.9,4.4 5.6,3.9 5.4,3.5 L5.9,3.3 C6.1,3.6 6.4,4.2 6.6,4.6 Z M7.6,4.2 L7.1,4.4 C6.9,4 6.6,3.5 6.3,3.1 L6.8,2.9 C7,3.2 7.4,3.8 7.6,4.2 Z" id="Shape"></path>
                    <path d="M16.6,5.8 L12.9,5.8 L12.9,7.8 C12.9,8.3 12.8,8.5 12.4,8.6 C12.1,8.7 11.5,8.7 10.5,8.7 C10.4,8.5 10.3,8.2 10.2,8 C11,8 11.7,8 11.9,8 C12.1,8 12.2,7.9 12.2,7.7 L12.2,5.7 L8.5,5.7 L8.5,5 L12.2,5 L12.2,3.5 L9.1,3.5 L9.1,3 L12.2,3 L12.2,1.6 C11.2,1.7 10.2,1.8 9.3,1.8 C9.3,1.6 9.2,1.4 9.1,1.2 C11.2,1.1 13.8,0.9 15.2,0.4 L15.7,0.9 C14.9,1.1 14,1.3 12.9,1.4 L12.9,3 L16.1,3 L16.1,3.6 L12.9,3.6 L12.9,5.1 L16.6,5.1 L16.6,5.8 Z" id="Shape"></path>
                    <path d="M19.3,1.2 C19.2,1.4 19.2,1.6 19.1,1.8 C18.9,2.6 18.7,4.2 18.7,5.2 C18.7,5.6 18.7,6 18.8,6.4 C19,6 19.2,5.5 19.3,5.1 L19.7,5.4 C19.5,6 19.2,7 19.1,7.4 C19.1,7.5 19.1,7.7 19.1,7.8 L19.1,8.1 L18.5,8.1 C18.3,7.5 18.2,6.4 18.2,5.2 C18.2,3.9 18.5,2.4 18.6,1.6 C18.6,1.4 18.7,1.2 18.7,1 L19.3,1.2 Z M21.3,5.6 C21.2,5.9 21.2,6.2 21.2,6.4 C21.2,6.8 21.5,7.2 22.7,7.2 C23.5,7.2 24.2,7.1 24.9,7 L24.9,7.8 C24.4,7.9 23.6,8 22.7,8 C21.2,8 20.5,7.5 20.5,6.7 C20.5,6.4 20.6,6 20.6,5.6 L21.3,5.6 Z M21,1.9 C22,2.1 23.8,2 24.7,1.9 L24.7,2.6 C23.7,2.7 22,2.7 21,2.6 L21,1.9 Z" id="Shape"></path>
                    <path d="M30.7,1 C30.7,2.6 30.9,6 34.4,8.1 C34.2,8.2 34,8.5 33.9,8.7 C31.7,7.4 30.7,5.4 30.3,3.7 C29.6,6 28.5,7.7 26.7,8.7 C26.6,8.6 26.3,8.3 26.1,8.2 C28.1,7.2 29.2,5.4 29.7,2.8 L30.1,2.9 C30.1,2.4 30,2 30,1.7 L27.8,1.7 L27.8,1 L30.7,1 Z" id="Shape"></path>
                    <path d="M43.2,7.3 C42.7,7.8 42.2,8 41.6,8 C41,8 40.6,7.6 40.6,6.9 C40.6,5.9 40.9,4.4 40.9,3.6 C40.9,3.1 40.6,2.9 40.2,2.9 C39.5,2.9 38.4,3.7 37.6,4.6 C37.6,5 37.6,5.3 37.6,5.6 C37.6,6.4 37.6,7 37.6,7.8 C37.6,8 37.6,8.2 37.6,8.3 L36.8,8.3 C36.8,8.2 36.8,7.9 36.8,7.8 C36.8,6.9 36.8,6.5 36.8,5.5 C36.8,5.4 36.8,5.3 36.8,5.2 C36.4,5.9 35.8,6.7 35.4,7.3 L35,6.6 C35.5,6 36.5,4.6 37,3.9 C37,3.6 37,3.3 37.1,3 C36.7,3 35.9,3.2 35.4,3.2 L35.3,2.5 C35.5,2.5 35.7,2.5 35.9,2.5 C36.2,2.5 36.7,2.4 37.2,2.4 C37.2,2 37.2,1.7 37.2,1.6 C37.2,1.4 37.2,1.2 37.2,0.9 L38.1,0.9 C38.1,1.1 38,1.6 37.9,2.2 L38.2,2.5 C38.1,2.7 37.9,2.9 37.8,3.1 C37.8,3.3 37.8,3.4 37.8,3.6 C38.5,3 39.6,2.1 40.5,2.1 C41.3,2.1 41.8,2.6 41.8,3.3 C41.8,4.2 41.5,5.7 41.5,6.6 C41.5,6.9 41.6,7.1 42,7.1 C42.4,7.1 42.9,6.8 43.3,6.4 L43.2,7.3 Z" id="Shape"></path>
                    <path d="M48.2,3.5 C48.2,4.1 48.2,4.9 48.3,5.7 C49.4,6 50.4,6.6 51.1,7.2 L50.7,7.9 C50.1,7.3 49.3,6.8 48.4,6.4 C48.4,6.6 48.4,6.8 48.4,7 C48.4,7.7 47.9,8.4 46.8,8.4 C45.6,8.4 44.7,8 44.7,7 C44.7,6.2 45.4,5.5 46.9,5.5 C47.2,5.5 47.4,5.5 47.7,5.6 C47.7,4.9 47.6,4.1 47.6,3.5 C47.6,3 47.6,2.2 47.6,1.9 C47.6,1.6 47.6,1.2 47.5,1 L48.4,1 C48.4,1.2 48.3,1.6 48.3,1.9 C48.3,2.1 48.3,2.5 48.3,2.8 C49,2.8 50.1,2.7 50.9,2.6 L50.9,3.3 C50.1,3.3 48.9,3.4 48.2,3.5 Z M47.6,6.2 C47.3,6.1 47,6.1 46.7,6.1 C45.8,6.1 45.3,6.4 45.3,6.9 C45.3,7.4 45.8,7.7 46.7,7.7 C47.4,7.7 47.7,7.4 47.7,6.8 C47.6,6.6 47.6,6.4 47.6,6.2 Z" id="Shape"></path>
                    <path d="M56.4,3.7 C55.4,3.7 54.5,4 54,4.2 C53.7,4.3 53.5,4.4 53.3,4.5 L53,3.6 C53.2,3.6 53.5,3.5 53.8,3.5 C54.4,3.4 55.4,3.1 56.5,3.1 C57.8,3.1 58.7,3.8 58.7,5.1 C58.7,7 57,8.1 54.7,8.5 L54.3,7.8 C56.5,7.5 58,6.7 58,5.1 C57.9,4.2 57.3,3.7 56.4,3.7 Z M58,1.4 L57.9,2.1 C56.9,2 55.1,1.9 54.1,1.7 L54.2,1 C55.2,1.2 57.1,1.4 58,1.4 Z" id="Shape"></path>
                </g>
            </g>
        </g>
    </g>
</svg>