<?xml version="1.0" encoding="UTF-8" standalone="no"?>
<svg width="88px" height="80px" viewBox="0 0 88 80" version="1.1" xmlns="http://www.w3.org/2000/svg" xmlns:xlink="http://www.w3.org/1999/xlink">
    <!-- Generator: Sketch 48.2 (47327) - http://www.bohemiancoding.com/sketch -->
    <title>Staple-logo-Square-White</title>
    <desc>Created with Sketch.</desc>
    <defs>
        <polygon id="path-1" points="0.299981395 0.297823256 88.039814 0.297823256 88.039814 32.744186 0.299981395 32.744186"></polygon>
    </defs>
    <g id="TOP-DesignA/PC" stroke="none" stroke-width="1" fill="none" fill-rule="evenodd" transform="translate(-814.000000, -89.000000)">
        <g id="Section_Mainvisual">
            <g id="Detail-Link" transform="translate(791.000000, 89.000000)">
                <g id="Staple-logo-Square-White" transform="translate(23.000000, 0.000000)">
                    <path d="M62.7746977,24.1488372 C62.7746977,16.5581395 57.1933023,11.088 49.528186,11.088 L38.2165581,11.088 L36.728186,13.060093 L38.2165581,15.032186 L49.156093,15.032186 C54.6634419,15.032186 58.6816744,18.8647442 58.6816744,24.1488372 C58.6816744,29.432186 54.6634419,33.2651163 49.156093,33.2651163 L27.7979535,33.2651163 L26.3095814,35.2372093 L27.7979535,37.2093023 L49.528186,37.2093023 C57.1933023,37.2093023 62.7746977,31.7391628 62.7746977,24.1488372 M25.5653953,13.060093 C25.5653953,20.6511628 31.1467907,26.1209302 38.811907,26.1209302 L50.1235349,26.1209302 L51.611907,24.1488372 L50.1235349,22.1763721 L39.184,22.1763721 C33.6773953,22.1763721 29.6584186,18.343814 29.6584186,13.060093 C29.6584186,7.77637209 33.6773953,3.94381395 39.184,3.94381395 L60.5421395,3.94381395 L62.0305116,1.97172093 L60.5421395,0 L38.811907,0 C31.1467907,0 25.5653953,5.46939535 25.5653953,13.060093" id="Fill-6" fill="#FFFFFF"></path>
                    <g id="Group-10" transform="translate(0.000000, 47.092167)">
                        <mask id="mask-2" fill="white">
                            <use xlink:href="#path-1"></use>
                        </mask>
                        <g id="Clip-9"></g>
                        <path d="M35.1278884,7.21875349 L22.2534698,7.21875349 L22.2534698,1.26526512 L20.8767256,0.297823256 L19.4999814,1.26526512 L19.4999814,7.21875349 L6.99765581,7.21875349 C2.86779535,7.21875349 0.523237209,9.1168 0.523237209,12.5024744 C0.523237209,15.8885209 2.86779535,17.7861953 6.99765581,17.7861953 L8.93253953,17.7861953 C11.3883535,17.7861953 12.6534698,18.7164279 12.6534698,20.5024744 C12.6534698,22.2885209 11.3883535,23.2187535 8.93253953,23.2187535 L1.26742326,23.2187535 L0.299981395,24.5210791 L1.26742326,25.8234047 L8.93253953,25.8234047 C13.0627721,25.8234047 15.4069581,23.9257302 15.4069581,20.5396837 C15.4069581,17.1536372 13.0627721,15.2563349 8.93253953,15.2563349 L6.99765581,15.2563349 C4.54221395,15.2563349 3.27672558,14.3261023 3.27672558,12.5396837 C3.27672558,10.7536372 4.54221395,9.82340465 6.99765581,9.82340465 L19.4999814,9.82340465 L19.4999814,25.4513116 L20.8767256,26.4187535 L22.2534698,25.4513116 L22.2534698,9.82340465 L35.1278884,9.82340465 C37.5837023,9.82340465 38.8488186,10.8652651 38.8488186,12.9117767 L38.8488186,23.2187535 L32.8212837,23.2187535 C30.3650977,23.2187535 29.1003535,22.2885209 29.1003535,20.5024744 C29.1003535,18.7164279 30.3650977,17.7861953 32.8212837,17.7861953 L36.2441674,17.7861953 L37.2116093,16.5210791 L36.2441674,15.2563349 L32.8212837,15.2563349 C28.6906791,15.2563349 26.346493,17.1536372 26.346493,20.5396837 C26.346493,23.9257302 28.6906791,25.8234047 32.8212837,25.8234047 L41.602307,25.8234047 L41.602307,12.9117767 C41.602307,9.26526512 39.2581209,7.21875349 35.1278884,7.21875349 Z M66.9418419,0.297823256 L65.5654698,1.26526512 L65.5654698,25.4513116 L66.9418419,26.4187535 L68.3189581,25.4513116 L68.3189581,1.26526512 L66.9418419,0.297823256 Z M52.1701209,7.21875349 L46.3654698,7.21875349 L46.3654698,31.776893 L47.7418419,32.7443349 L49.118586,31.776893 L49.118586,25.8234047 L52.1701209,25.8234047 C58.1236093,25.8234047 61.4724465,22.660614 61.4724465,17.0420093 L61.4724465,16.0005209 C61.4724465,10.3815442 58.1236093,7.21875349 52.1701209,7.21875349 Z M88.0398884,24.5210791 L87.0720744,23.2187535 L80.3744,23.2187535 C76.9511442,23.2187535 75.1650977,21.432707 75.1650977,18.0094512 L75.1650977,15.032707 C75.1650977,11.6094512 76.9511442,9.82340465 80.3744,9.82340465 L81.342214,9.82340465 C83.7980279,9.82340465 85.0631442,10.7536372 85.0631442,12.5396837 C85.0631442,14.3261023 83.7980279,15.2563349 81.342214,15.2563349 L77.7697488,15.2563349 L76.802307,16.5210791 L77.7697488,17.7861953 L81.342214,17.7861953 C85.4724465,17.7861953 87.8162605,15.8885209 87.8162605,12.5024744 C87.8162605,9.1168 85.4724465,7.21875349 81.342214,7.21875349 L80.3744,7.21875349 C75.2767256,7.21875349 72.4119814,10.0470326 72.4119814,15.032707 L72.4119814,18.0094512 C72.4119814,22.9954977 75.2767256,25.8234047 80.3744,25.8234047 L87.0720744,25.8234047 L88.0398884,24.5210791 Z M58.718586,16.0005209 L58.718586,17.0420093 C58.718586,21.1350326 56.4860279,23.2187535 52.1701209,23.2187535 L49.118586,23.2187535 L49.118586,9.82340465 L52.1701209,9.82340465 C56.4860279,9.82340465 58.718586,11.9074977 58.718586,16.0005209 Z" id="Fill-8" fill="#FFFFFF" mask="url(#mask-2)"></path>
                    </g>
                </g>
            </g>
        </g>
    </g>
</svg>