<?xml version="1.0" encoding="UTF-8"?>
<svg width="128px" height="128px" viewBox="0 0 128 128" version="1.1" xmlns="http://www.w3.org/2000/svg" xmlns:xlink="http://www.w3.org/1999/xlink">
    <!-- Generator: Sketch 48.2 (47327) - http://www.bohemiancoding.com/sketch -->
    <title>Logo/Staple/Vertical</title>
    <desc>Created with Sketch.</desc>
    <defs>
        <polygon id="path-1" points="9.24855491e-05 0.000277456647 79.9075145 0.000277456647 79.9075145 79.9073295 9.24855491e-05 79.9073295"></polygon>
    </defs>
    <g id="TOP-DesignA/PC" stroke="none" stroke-width="1" fill="none" fill-rule="evenodd" transform="translate(-124.000000, -855.000000)">
        <g id="Section_Services" transform="translate(0.000000, 687.000000)">
            <g id="Contents" transform="translate(44.000000, 128.000000)">
                <g id="Staple">
                    <g id="Logo/Staple/Vertical" transform="translate(80.000000, 40.000000)">
                        <rect id="Rectangle-4" fill="#FFFFFF" x="0" y="0" width="128" height="128"></rect>
                        <g id="Page-1" stroke-width="1" transform="translate(24.000000, 24.000000)">
                            <mask id="mask-2" fill="white">
                                <use xlink:href="#path-1"></use>
                            </mask>
                            <g id="Clip-2"></g>
                            <path d="M79.9076069,51.8601618 C79.9076069,35.5591214 67.9214798,23.8120694 51.4609017,23.8120694 L27.1686474,23.8120694 L23.9723468,28.0474451 L27.1686474,32.2828208 L50.6618266,32.2828208 C62.4879538,32.2828208 71.1177803,40.5126474 71.1177803,51.8601618 C71.1177803,63.2067514 62.4879538,71.4375029 50.6618266,71.4375029 L4.79454335,71.4375029 L1.59824277,75.6724162 L4.79454335,79.9073295 L51.4609017,79.9073295 C67.9214798,79.9073295 79.9076069,68.1607399 79.9076069,51.8601618 M9.24855491e-05,28.0474451 C9.24855491e-05,44.3484855 11.9862197,56.0950751 28.4472601,56.0950751 L52.739052,56.0950751 L55.9353526,51.8601618 L52.739052,47.6243237 L29.2463353,47.6243237 C17.4197457,47.6243237 8.78991908,39.3940347 8.78991908,28.0474451 C8.78991908,16.7003931 17.4197457,8.47010405 29.2463353,8.47010405 L75.1131561,8.47010405 L78.3094566,4.23472832 L75.1131561,0.000277456647 L28.4472601,0.000277456647 C11.9862197,0.000277456647 9.24855491e-05,11.7459422 9.24855491e-05,28.0474451" id="Fill-1" fill="#000000" mask="url(#mask-2)"></path>
                        </g>
                    </g>
                </g>
            </g>
        </g>
    </g>
</svg>