<svg id="Layer_1" data-name="Layer 1" xmlns="http://www.w3.org/2000/svg" viewBox="0 0 500 500"><defs><style>.cls-1{fill:#fff;}.cls-2{fill:#d1101a;}.cls-3{fill:#231815;}</style></defs><title>アートボード 1</title><rect class="cls-1" width="500" height="500" rx="16" ry="16"/><path d="M167.8,173.47c0,35.25,25.92,60.65,61.52,60.65h52.53l6.91-9.16-6.91-9.16h-50.8c-25.58,0-44.24-17.8-44.24-42.33s18.66-42.34,44.24-42.34h99.18l6.91-9.16-6.91-9.16H229.32C193.72,112.81,167.8,138.21,167.8,173.47ZM340.6,225c0-35.25-25.92-60.65-61.52-60.65H226.55l-6.91,9.16,6.91,9.15h50.81c25.57,0,44.23,17.8,44.23,42.34s-18.66,42.34-44.23,42.34H178.17l-6.91,9.16,6.91,9.15H279.08C314.68,285.61,340.6,260.21,340.6,225Z"/><path class="cls-2" d="M87.22,423.64l33.55-33.55a33.55,33.55,0,0,0-33.55,33.55"/><path class="cls-2" d="M120.77,457.19,87.22,423.64a33.55,33.55,0,0,0,33.55,33.55"/><path class="cls-2" d="M104,423.64l16.77,16.77,16.78-16.77-4.2-4.2L125,427.83l-8.38-8.39,16.77-16.77,21,21a33.56,33.56,0,0,0-33.56-33.55l8.39,8.39Z"/><path class="cls-2" d="M120.77,457.19a33.56,33.56,0,0,0,33.56-33.55Z"/><path class="cls-3" d="M245.45,410.26c-.39,1.08-1.18,2.29-3.86,2.29l-1.85,0v-15.9l1.85,0c2.68,0,3.47,1.21,3.86,2.29s.42,2.43.42,5.68,0,4.57-.42,5.68m-3.66-17.69H235.4v24h6.39c3.76,0,6.16-1.28,7.27-3.72.92-2,1.15-3.54,1.15-8.29s-.23-6.28-1.15-8.3c-1.11-2.44-3.51-3.71-7.27-3.71M225,410.85c-.25,1.63-1.54,2.35-3.13,2.35s-2.87-.72-3.12-2.35c-.12-.79-.14-3.12-.14-6.27s0-5.48.14-6.28c.25-1.63,1.53-2.35,3.12-2.35s2.88.72,3.13,2.35c.13.8.13,3.12.13,6.28s0,5.48-.13,6.27m-3.13-19.09c-5,0-7.07,3-7.51,5.83a116.27,116.27,0,0,0,0,14c.44,2.84,2.48,5.83,7.51,5.83s7.07-3,7.52-5.83a116.27,116.27,0,0,0,0-14c-.45-2.84-2.49-5.83-7.52-5.83M204,410.87c-.25,1.62-1.53,2.35-3.13,2.35s-2.87-.73-3.12-2.35c-.13-.8-.14-3.12-.14-6.28s0-5.48.14-6.28c.25-1.63,1.53-2.35,3.12-2.35s2.88.72,3.13,2.35c.13.8.13,3.12.13,6.28s0,5.48-.13,6.28m-3.13-19.09c-5,0-7.07,3-7.51,5.83a116.11,116.11,0,0,0,0,14c.44,2.85,2.49,5.83,7.51,5.83s7.07-3,7.52-5.83a116.11,116.11,0,0,0,0-14c-.45-2.85-2.49-5.83-7.52-5.83m-20.71,15.78h3c0,1.57,0,2.76-.08,3.31-.27,1.71-1.33,2.35-3,2.35a2.72,2.72,0,0,1-3-2.35c-.13-.8-.14-3.12-.14-6.28s0-5.48.14-6.28a3,3,0,0,1,5.81,0c.05.34.09,1.21.11,2h4.35a20.53,20.53,0,0,0-.15-2.67c-.43-2.76-2.18-5.83-7.13-5.83s-6.94,3-7.39,5.83a121.9,121.9,0,0,0,0,14,6.71,6.71,0,0,0,7,5.83,5.3,5.3,0,0,0,4.76-2.43l.61,1.63h2.32V403.76h-7.3Z"/><path class="cls-3" d="M340,407.56H343c0,1.57,0,2.76-.09,3.31-.26,1.71-1.32,2.35-3,2.35a2.72,2.72,0,0,1-3-2.35c-.12-.8-.13-3.12-.13-6.28s0-5.48.13-6.28a3,3,0,0,1,5.82,0c.05.34.09,1.21.11,2h4.35a20.53,20.53,0,0,0-.15-2.67c-.43-2.76-2.18-5.83-7.13-5.83s-6.94,3-7.39,5.83a116.11,116.11,0,0,0,0,14,6.7,6.7,0,0,0,7.05,5.83,5.3,5.3,0,0,0,4.76-2.43l.6,1.63h2.33v-9h0v-3.8H340Z"/><polygon class="cls-3" points="288.12 406.51 295.38 406.51 295.38 402.45 288.12 402.45 288.12 396.62 296.34 396.62 296.34 392.57 283.77 392.57 283.77 416.59 296.61 416.59 296.61 412.53 288.12 412.53 288.12 406.51"/><rect class="cls-3" x="321.9" y="392.57" width="4.46" height="24.03"/><polygon class="cls-3" points="364.44 392.57 364.44 407.79 358.48 392.57 353.39 392.57 353.39 416.59 357.58 416.59 357.58 400.1 364.18 416.59 368.63 416.59 368.63 392.57 364.44 392.57"/><path class="cls-3" d="M273.34,410.26c-.39,1.08-1.18,2.29-3.87,2.29l-1.85,0V396.62h1.85c2.69,0,3.48,1.21,3.87,2.29s.42,2.43.42,5.68,0,4.57-.42,5.68m-3.67-17.69h-6.39v24h6.39c3.77,0,6.17-1.28,7.28-3.71.92-2,1.15-3.54,1.15-8.3s-.23-6.28-1.15-8.3c-1.11-2.44-3.51-3.71-7.28-3.71"/><path class="cls-3" d="M306,398.38c0-1.71,1.3-2.59,2.9-2.59s3,.95,3.06,3.3h4.18c-.05-5.33-3.74-7.32-7.24-7.32-3.67,0-7.3,2.26-7.3,6.61,0,7,10.41,7.2,10.41,12.07,0,1.82-1.37,2.83-3.21,2.83s-3.41-1.28-3.6-3.73h-4.27c.16,5.51,4.14,7.84,7.87,7.84s7.6-2,7.6-6.94c0-7.46-10.4-7.92-10.4-12.07"/><path class="cls-3" d="M177.7,446.25l2.43-10.4,2.44,10.4Zm-.45-15.58-6,24h4.46l1.06-4.53h6.7l1.06,4.53H189l-6-24Z"/><path class="cls-3" d="M224.06,446.25l2.44-10.4,2.43,10.4Zm-.44-15.58-6,24h4.47l1.06-4.53h6.69l1.07,4.53h4.46l-6-24Z"/><path class="cls-3" d="M247.53,441.6h-3v-7h3c2.41,0,3.32,1.21,3.32,3.48s-.91,3.49-3.32,3.49m7.8-3.49c0-4.79-2.63-7.44-7.6-7.44h-7.65v24h4.47v-9.15h3l3.55,9.15h4.81l-4-10c2.29-1.13,3.48-3.38,3.48-6.6"/><path class="cls-3" d="M271.08,448.37c-.39,1.08-1.18,2.29-3.86,2.29l-1.86,0V434.73h1.86c2.68,0,3.47,1.21,3.86,2.29s.42,2.43.42,5.68,0,4.57-.42,5.68m3.61-14c-1.12-2.44-3.51-3.72-7.28-3.72H261v24h6.39c3.77,0,6.16-1.27,7.28-3.72.92-2,1.15-3.54,1.15-8.29s-.23-6.28-1.15-8.3"/><polygon class="cls-3" points="208.23 447.03 205.66 430.67 200.97 430.67 198.4 447.03 195.52 430.67 191.24 430.67 195.82 454.7 200.69 454.7 203.32 437.98 205.68 454.7 210.59 454.7 215.39 430.67 211.08 430.67 208.23 447.03"/><path class="cls-3" d="M317.35,448.71a2.83,2.83,0,0,1-5.58,0c-.12-.79-.13-2.87-.13-6s0-5.24.13-6a2.83,2.83,0,0,1,5.58,0c.12.79.13,2.87.13,6s0,5.23-.13,6m-2.79-18.58c-4.88,0-6.62,3-7.05,5.82a113.5,113.5,0,0,0,0,13.47c.43,2.84,2.17,5.83,7.05,5.83s6.62-3,7.05-5.83a113.5,113.5,0,0,0,0-13.47c-.43-2.84-2.17-5.82-7.05-5.82"/><path class="cls-3" d="M302.62,436.71c0-4.86-3.9-6.65-7.14-6.58s-6.93,1.92-6.93,7.7h4.23c0-2.55,1.11-3.6,2.74-3.67a2.5,2.5,0,0,1,2.8,2.7c0,2.26-2.5,4.95-9.58,13.95v3.93h13.52v-4.06h-8.18c3.11-4,5.58-7.07,7.14-9.53a8.24,8.24,0,0,0,1.4-4.44"/><path class="cls-3" d="M326.59,434v3.26h3v17.51h4.31V430.67h-3.46c-.34,2.08-1.66,3.05-3.88,3.31"/><polygon class="cls-3" points="338.77 430.67 338.77 434.73 347.63 434.73 340.78 454.75 345.22 454.75 352.23 434.28 352.23 430.67 338.77 430.67"/></svg>