<svg id="Layer_1" data-name="Layer 1" xmlns="http://www.w3.org/2000/svg" viewBox="0 0 259 39"><defs><style>.cls-1{fill:#262424;}.cls-2{fill:#ff6801;}.cls-3{fill:#fff;}</style></defs><title>アートボード 2</title><g id="Layer_13_画像" data-name="Layer 13 画像"><path class="cls-1" d="M57.9,10.8A8.64,8.64,0,0,1,64.6,14h5.5A13,13,0,0,0,57.9,6.2a13.35,13.35,0,0,0,.2,26.7A13,13,0,0,0,70,25.3H64.5A8.63,8.63,0,1,1,51.9,13.5a8,8,0,0,1,6-2.7Z"/><path class="cls-1" d="M76.5,22.4l6.7,9.8h5.9l-7-9.5a8.74,8.74,0,0,0,4.6-2.5,9.42,9.42,0,0,0,2.1-5.6,8.27,8.27,0,0,0-3-6.3c-1.9-1.6-4.2-1.8-6.7-1.8H71.7V32.1h4.8Zm0-11.2h2.6a5.43,5.43,0,0,1,3.5.9A3.7,3.7,0,0,1,84,15a4,4,0,0,1-1.2,2.8A5.68,5.68,0,0,1,79,18.9H76.4Z"/><path class="cls-1" d="M103.2,6.1a13.4,13.4,0,1,0,13.4,13.5A13.55,13.55,0,0,0,103.2,6.1Zm0,22.2a8.77,8.77,0,0,1-8.6-8.8,8.6,8.6,0,1,1,17.2,0h0a9,9,0,0,1-8.6,8.8Z"/><polygon class="cls-1" points="141.4 6.6 135.3 27.6 132.9 27.6 132.9 19.7 128.8 19.7 128.8 27.6 126.4 27.6 120.3 6.6 115.4 6.6 122.9 32.2 138.8 32.2 146.3 6.6 141.4 6.6"/><path class="cls-1" d="M164.1,29.3a13,13,0,0,0,4.4-9.7,13.63,13.63,0,0,0-4.4-10c-3-2.6-6.9-3-10.8-3H148V32.3h5.5C157.4,32.2,161,31.9,164.1,29.3Zm-11.4-1.7V11.2h.4c2.5,0,5.1.1,7.3,1.5a8,8,0,0,1,3.4,6.8,7.77,7.77,0,0,1-3.1,6.3c-2.2,1.6-4.7,1.7-7.4,1.7h-.6Z"/><path class="cls-1" d="M201.7,25.3h-5.5a8.63,8.63,0,0,1-12.6-11.8,8.42,8.42,0,0,1,6.1-2.7,8.64,8.64,0,0,1,6.7,3.2h5.4a13,13,0,0,0-12.2-7.8,13.35,13.35,0,0,0,.2,26.7A13.13,13.13,0,0,0,201.7,25.3Z"/><polygon class="cls-1" points="215.1 6.6 211.4 6.6 200.7 32.2 205.9 32.2 213.2 13.2 220.6 32.2 225.9 32.2 215.1 6.6"/><path class="cls-1" d="M241.8,24.8a6.88,6.88,0,0,0-2.7-5.8,15.41,15.41,0,0,0-5-2.4c-1.5-.5-3.3-1.2-3.2-3.1a2.48,2.48,0,0,1,2.3-2.7h.3a2.86,2.86,0,0,1,2.9,2.7h4.9a7.45,7.45,0,0,0-7.5-7.3,7.21,7.21,0,0,0-5.6,12.2,10.05,10.05,0,0,0,4.4,2.4c2.1.7,4.5,1.5,4.5,4.3a3.24,3.24,0,0,1-3.3,3.2h-.1a3.34,3.34,0,0,1-3.6-3v-.2h-5a8.29,8.29,0,0,0,8.7,7.9,8.48,8.48,0,0,0,8-8.2Z"/><polygon class="cls-1" points="243 6.6 243 11.2 247.7 11.2 247.7 32.2 252.5 32.2 252.5 11.2 257.2 11.2 257.2 6.6 243 6.6"/></g><path class="cls-2" d="M19.5,38A18.5,18.5,0,1,1,38,19.5,18.51,18.51,0,0,1,19.5,38Z"/><path class="cls-3" d="M19.5,3.75A15.75,15.75,0,1,0,35.34,19.5,15.83,15.83,0,0,0,19.5,3.75Z"/><path class="cls-2" d="M17.79,14.46a5.41,5.41,0,0,1,9.09-3.87l2-.09a6.85,6.85,0,0,0-9.63-1.62,7.29,7.29,0,0,0-3,5.67,9,9,0,0,0,.17,1.54,5.52,5.52,0,0,1,1.54.26A7.2,7.2,0,0,1,17.79,14.46Z"/><path class="cls-2" d="M28.32,14.82A5.38,5.38,0,0,1,23,19.77h-.63a5.46,5.46,0,0,1-1.62-.45,6.71,6.71,0,0,1-1.08-.63l-.54-.27a6.95,6.95,0,1,0,3.78,6.93l-1.62.09a5.37,5.37,0,1,1-10.62-1.62,5.58,5.58,0,0,1,5.4-4.59,5.39,5.39,0,0,1,3.24,1.08,8,8,0,0,0,3.51,1.08H23a6.92,6.92,0,0,0,6.93-6.57Z"/></svg>