<?xml version="1.0" encoding="UTF-8" standalone="no"?>
<svg width="128px" height="32px" viewBox="0 0 128 32" version="1.1" xmlns="http://www.w3.org/2000/svg" xmlns:xlink="http://www.w3.org/1999/xlink">
    <!-- Generator: Sketch 48.2 (47327) - http://www.bohemiancoding.com/sketch -->
    <title>Logo/Normal</title>
    <desc>Created with Sketch.</desc>
    <defs>
        <polygon id="path-1" points="0.0636839506 0.00734814815 6.39051852 0.00734814815 6.39051852 11.3819654 0.0636839506 11.3819654"></polygon>
        <polygon id="path-3" points="0.000316049383 0.490666667 30.3252543 0.490666667 30.3252543 30.8144988 0.000316049383 30.8144988"></polygon>
    </defs>
    <g id="Symbols" stroke="none" stroke-width="1" fill="none" fill-rule="evenodd">
        <g id="Logo/Normal">
            <g id="Page-1">
                <path d="M38.8244543,8.45985185 C39.9630222,8.45985185 41.1015901,9.01293827 41.8103309,9.87575309 L44.2107259,9.87575309 C43.3336889,7.73609877 41.0865778,6.41185185 38.8078617,6.41185185 C35.6378864,6.41185185 32.9751704,9.09116049 32.9751704,12.3077531 C32.9751704,15.5551605 35.6078617,18.2802963 38.8702815,18.2802963 C41.0715654,18.2802963 43.2878617,16.9718519 44.1498864,14.9096296 L41.7028741,14.9096296 C40.9332938,15.7242469 39.9630222,16.2330864 38.8402568,16.2330864 C36.806479,16.2330864 35.0840099,14.4015802 35.0840099,12.3843951 C35.0840099,10.2597531 36.7464296,8.45985185 38.8244543,8.45985185" id="Fill-1" fill="#221F1F"></path>
                <path d="M47.0559605,8.67516049 L48.2253432,8.67516049 C48.8108247,8.65935802 49.3030716,8.69096296 49.7961086,9.05995062 C50.1967012,9.3522963 50.4116148,9.84454321 50.4116148,10.3375802 C50.4116148,10.8148148 50.2283062,11.2454321 49.8885531,11.5693827 C49.4737383,11.9691852 48.7649975,12.0466173 48.211121,12.0466173 L47.0559605,12.0466173 L47.0559605,8.67516049 Z M47.0559605,13.6474074 L50.041837,18.003358 L52.6429235,18.003358 L49.5646025,13.8006914 C50.335763,13.6308148 51.027121,13.3076543 51.5825778,12.7079506 C52.1356642,12.0916543 52.5196642,11.0613333 52.5196642,10.2293333 C52.5196642,9.16819753 52.0116148,8.10548148 51.1962074,7.42834568 C50.335763,6.70459259 49.3188741,6.64454321 48.2419358,6.62795062 L44.947121,6.62795062 L44.947121,18.003358 L47.0559605,18.003358 L47.0559605,13.6474074 Z" id="Fill-3" fill="#221F1F"></path>
                <path d="M58.9062321,16.2330074 C56.8282074,16.2330074 55.0891457,14.432316 55.0891457,12.3226864 C55.0891457,10.1838222 56.7823802,8.45977284 58.9062321,8.45977284 C61.030084,8.45977284 62.7241086,10.1838222 62.7241086,12.3226864 C62.7241086,14.432316 60.9850469,16.2330074 58.9062321,16.2330074 M58.9062321,6.41177284 C55.6280099,6.41177284 52.9803062,9.06026667 52.9803062,12.3693037 C52.9803062,15.6625383 55.673837,18.2802173 58.9062321,18.2802173 C62.1386272,18.2802173 64.8329481,15.6625383 64.8329481,12.3693037 C64.8329481,9.06026667 62.1844543,6.41177284 58.9062321,6.41177284" id="Fill-5" fill="#221F1F"></path>
                <polygon id="Fill-7" fill="#221F1F" points="75.8823506 6.62810864 73.1817086 15.9563062 72.1134617 15.9563062 72.1134617 12.4363062 70.2685235 12.4363062 70.2685235 15.9563062 69.1986963 15.9563062 66.4996346 6.62810864 64.3441778 6.62810864 67.6532148 18.0027259 74.7279802 18.0027259 78.0378074 6.62810864"></polygon>
                <path d="M80.9124346,15.9559901 L80.9124346,8.67500247 L81.0649284,8.67500247 C82.1750519,8.67500247 83.3436444,8.70502716 84.2973235,9.3529284 C85.2833975,10.0292741 85.8064593,11.1836444 85.8064593,12.3696198 C85.8064593,13.478163 85.3142123,14.508484 84.4355951,15.1856198 C83.4518914,15.9085827 82.3599407,15.9559901 81.1731753,15.9559901 L80.9124346,15.9559901 Z M85.9613235,16.6947556 C87.1915457,15.647842 87.9152988,13.9553975 87.9152988,12.3696198 C87.9152988,10.7530272 87.2081383,8.99895309 85.9613235,7.95203951 C84.620484,6.8134716 82.8822123,6.64438519 81.1889778,6.62779259 L78.8035951,6.62779259 L78.8035951,18.0032 L81.2348049,18.0032 C82.9738667,18.0032 84.5912494,17.8641383 85.9613235,16.6947556 Z" id="Fill-9" fill="#221F1F"></path>
                <path d="M102.626923,14.9097086 L100.179911,14.9097086 C99.4103309,15.7243259 98.4400593,16.2331654 97.3165037,16.2331654 C95.2850963,16.2331654 93.561837,14.4008691 93.561837,12.3844741 C93.561837,10.2598321 95.2234667,8.45993086 97.3014914,8.45993086 C98.4400593,8.45993086 99.5802074,9.01301728 100.288158,9.8758321 L102.688553,9.8758321 C101.811516,7.73617778 99.5644049,6.41193086 97.286479,6.41193086 C94.1149235,6.41193086 91.4529975,9.09123951 91.4529975,12.3078321 C91.4529975,15.5552395 94.0841086,18.2803753 97.3481086,18.2803753 C99.5486025,18.2803753 101.764899,16.9719309 102.626923,14.9097086" id="Fill-11" fill="#221F1F"></path>
                <polygon id="Fill-13" fill="#221F1F" points="108.566756 6.62810864 106.920138 6.62810864 102.178607 18.0027259 104.503151 18.0027259 107.751348 9.56815802 111.02957 18.0027259 113.354114 18.0027259"></polygon>
                <path d="M120.431723,14.6774914 C120.431723,13.5697383 120.047723,12.7385284 119.231526,12.0922074 C118.585995,11.5541333 117.814835,11.3234173 117.01523,11.0452938 C116.337304,10.8145778 115.568514,10.4914173 115.583526,9.65941728 C115.568514,8.9830716 116.014933,8.46000988 116.707081,8.46000988 C117.368415,8.46000988 117.953896,8.93724444 117.984711,9.64519506 L120.15518,9.64519506 C120.170193,7.85951605 118.585995,6.41200988 116.830341,6.41200988 C115.013847,6.41200988 113.474686,7.78129383 113.474686,9.64519506 C113.474686,10.4305778 113.81444,11.2617877 114.367526,11.8306765 C114.936415,12.4153679 115.583526,12.6310716 116.337304,12.8775901 C117.27676,13.1849481 118.322884,13.5539358 118.322884,14.8007506 C118.322884,15.6319605 117.646538,16.2332444 116.845353,16.2332444 C115.999131,16.2332444 115.260365,15.7093926 115.260365,14.8007506 L113.059081,14.8007506 C113.059081,16.787121 114.799723,18.2804543 116.738686,18.2804543 C118.754291,18.2804543 120.431723,16.7096889 120.431723,14.6774914" id="Fill-15" fill="#221F1F"></path>
                <g id="Group-19" transform="translate(120.888889, 6.620760)">
                    <mask id="mask-2" fill="white">
                        <use xlink:href="#path-1"></use>
                    </mask>
                    <g id="Clip-18"></g>
                    <polygon id="Fill-17" fill="#221F1F" mask="url(#mask-2)" points="0.0636839506 0.00734814815 0.0636839506 2.05455802 2.15672099 2.05455802 2.15672099 11.3819654 4.26635062 11.3819654 4.26635062 2.05455802 6.39099259 2.05455802 6.39099259 0.00734814815"></polygon>
                </g>
                <path d="M36.7372642,23.8834568 C36.4441284,24.0659753 36.1043753,24.0794074 35.7638321,24.0794074 L34.9334123,24.0794074 L34.9334123,22.0724938 L35.5544494,22.0724938 C35.8886716,22.0724938 36.2402765,22.0393086 36.5610667,22.1775802 C36.941116,22.3340247 37.1631407,22.6603457 37.1631407,23.0791111 C37.1631407,23.3935802 37.0122272,23.7135802 36.7372642,23.8834568 M37.0122272,21.8955062 C36.621116,21.6474074 36.1691654,21.6402963 35.7180049,21.6339753 L34.4490667,21.6339753 L34.4490667,26.4671605 L34.9334123,26.4671605 L34.9334123,24.5179259 L35.8420543,24.5179259 C36.2932148,24.5179259 36.7246222,24.4792099 37.0975605,24.2042469 C37.4633877,23.9356049 37.6466963,23.5302716 37.6466963,23.0854321 C37.6466963,22.6018765 37.4309926,22.157037 37.0122272,21.8955062" id="Fill-20" fill="#221F1F"></path>
                <path d="M41.4540642,26.0871901 C40.3542123,26.0871901 39.3799901,25.1919802 39.3799901,24.0739556 C39.3799901,22.9424988 40.3154963,22.0267457 41.4540642,22.0204247 L41.4540642,22.0267457 C42.5578667,22.0267457 43.5194469,22.9227457 43.5194469,24.0407704 C43.5194469,25.1785481 42.5902617,26.0871901 41.4540642,26.0871901 M41.4469531,21.5621531 C40.0476444,21.5621531 38.8964346,22.6738568 38.8964346,24.0739556 C38.8964346,25.4598321 40.0926815,26.5517827 41.4469531,26.5517827 C42.8462617,26.5517827 44.0037926,25.4408691 44.0037926,24.0407704 C44.0037926,22.6541037 42.8130765,21.5621531 41.4469531,21.5621531" id="Fill-22" fill="#221F1F"></path>
                <polygon id="Fill-24" fill="#221F1F" points="49.6030025 25.8386963 48.4454716 21.6344494 47.9872 21.6344494 46.828879 25.8458074 45.6452741 21.6344494 45.1419654 21.6344494 46.5159901 26.4668444 47.1504593 26.4668444 48.2163358 22.5035852 49.2758914 26.4668444 49.9103605 26.4668444 51.2907062 21.6344494 50.7873975 21.6344494"></polygon>
                <polygon id="Fill-26" fill="#221F1F" points="52.6377086 26.4668444 55.2790914 26.4668444 55.2790914 26.029116 53.1212642 26.029116 53.1212642 24.249758 55.2079802 24.249758 55.2079802 23.8128198 53.1212642 23.8128198 53.1212642 22.0721778 55.2790914 22.0721778 55.2790914 21.6344494 52.6377086 21.6344494"></polygon>
                <path d="M60.204879,23.2098765 C60.204879,22.6473086 59.9433481,22.1511111 59.4534716,21.8698272 C59.046558,21.6406914 58.5369284,21.6343704 58.0794469,21.6343704 L56.9290272,21.6343704 L56.9290272,26.4667654 L57.4125827,26.4667654 L57.4125827,22.0728889 L58.1774222,22.0728889 C58.5566815,22.0728889 58.9493728,22.0728889 59.2693728,22.3012346 C59.5435457,22.4908642 59.7213235,22.8314074 59.7213235,23.1640494 C59.7213235,23.5954568 59.4921877,23.9620741 59.0923852,24.1453827 C58.7731753,24.2891852 58.3789037,24.2757531 58.0399407,24.2757531 L57.8953481,24.2757531 L59.5372247,26.4667654 L60.1392988,26.4667654 L58.7787062,24.6621235 C59.5632988,24.6423704 60.204879,24.0015802 60.204879,23.2098765" id="Fill-28" fill="#221F1F"></path>
                <polygon id="Fill-30" fill="#221F1F" points="63.8283062 22.0724938 64.9408 22.0724938 64.9408 26.4671605 65.4251457 26.4671605 65.4251457 22.0724938 66.521837 22.0724938 66.521837 21.6339753 63.8283062 21.6339753"></polygon>
                <path d="M70.1978864,26.0871901 C69.0996148,26.0871901 68.1253926,25.1919802 68.1253926,24.0739556 C68.1253926,22.9424988 69.0608988,22.0267457 70.1978864,22.0204247 L70.1978864,22.0267457 C71.3032691,22.0267457 72.2648494,22.9227457 72.2648494,24.0407704 C72.2648494,25.1785481 71.3356642,26.0871901 70.1978864,26.0871901 M70.1915654,21.5621531 C68.7922568,21.5621531 67.641837,22.6738568 67.641837,24.0739556 C67.641837,25.4598321 68.838084,26.5517827 70.1915654,26.5517827 C71.5908741,26.5517827 72.7491951,25.4408691 72.7491951,24.0407704 C72.7491951,22.6541037 71.558479,21.5621531 70.1915654,21.5621531" id="Fill-32" fill="#221F1F"></path>
                <polygon id="Fill-34" fill="#221F1F" points="76.4633284 22.0724938 77.5758222 22.0724938 77.5758222 26.4671605 78.0593778 26.4671605 78.0593778 22.0724938 79.1576494 22.0724938 79.1576494 21.6339753 76.4633284 21.6339753"></polygon>
                <polygon id="Fill-36" fill="#221F1F" points="83.4756741 23.7592494 80.9701926 23.7592494 80.9701926 21.6346074 80.486637 21.6346074 80.486637 26.4670025 80.9701926 26.4670025 80.9701926 24.1977679 83.4756741 24.1977679 83.4756741 26.4670025 83.9592296 26.4670025 83.9592296 21.6346074 83.4756741 21.6346074"></polygon>
                <polygon id="Fill-38" fill="#221F1F" points="85.7372444 26.4668444 88.3802074 26.4668444 88.3802074 26.029116 86.2215901 26.029116 86.2215901 24.249758 88.3083062 24.249758 88.3083062 23.8128198 86.2215901 23.8128198 86.2215901 22.0721778 88.3802074 22.0721778 88.3802074 21.6344494 85.7372444 21.6344494"></polygon>
                <path d="M94.9533235,26.0871901 C93.8542617,26.0871901 92.8990025,25.165116 92.8990025,24.0336593 C92.8990025,22.975684 93.8210765,22.0204247 94.9193481,22.0204247 C95.5672494,22.0204247 96.2483358,22.3269926 96.6086321,22.8769185 L97.1435457,22.8769185 C97.0131753,22.5237333 96.614163,22.157116 96.3068049,21.9611654 C95.8951506,21.6869926 95.4036938,21.5558321 94.9138173,21.5558321 C93.5405827,21.5558321 92.4154469,22.6604247 92.4154469,24.0336593 C92.4154469,25.4598321 93.5334716,26.5517827 94.9533235,26.5517827 C95.8611753,26.5517827 96.7445333,26.0089679 97.1632988,25.2046222 L96.6275951,25.2046222 C96.2483358,25.7340049 95.6067556,26.0871901 94.9533235,26.0871901" id="Fill-40" fill="#221F1F"></path>
                <path d="M102.004227,23.2098765 C102.004227,22.6473086 101.742696,22.1511111 101.25203,21.8698272 C100.845906,21.6406914 100.336277,21.6343704 99.8780049,21.6343704 L98.7267951,21.6343704 L98.7267951,26.4667654 L99.2103506,26.4667654 L99.2103506,22.0728889 L99.9767704,22.0728889 C100.35524,22.0728889 100.747141,22.0728889 101.067931,22.3012346 C101.342894,22.4908642 101.519881,22.8314074 101.519881,23.1640494 C101.519881,23.5954568 101.291536,23.9620741 100.891733,24.1453827 C100.571733,24.2891852 100.179042,24.2757531 99.8392889,24.2757531 L99.6939062,24.2757531 L101.335783,26.4667654 L101.937857,26.4667654 L100.578054,24.6621235 C101.362647,24.6423704 102.004227,24.0015802 102.004227,23.2098765" id="Fill-42" fill="#221F1F"></path>
                <path d="M105.829847,26.0871901 C104.731575,26.0871901 103.757353,25.1919802 103.757353,24.0739556 C103.757353,22.9424988 104.692859,22.0267457 105.829847,22.0204247 L105.829847,22.0267457 C106.93523,22.0267457 107.89681,22.9227457 107.89681,24.0407704 C107.89681,25.1785481 106.967625,26.0871901 105.829847,26.0871901 M105.823526,21.5621531 C104.424217,21.5621531 103.273798,22.6738568 103.273798,24.0739556 C103.273798,25.4598321 104.470044,26.5517827 105.823526,26.5517827 C107.222835,26.5517827 108.381156,25.4408691 108.381156,24.0407704 C108.381156,22.6541037 107.19044,21.5621531 105.823526,21.5621531" id="Fill-44" fill="#221F1F"></path>
                <polygon id="Fill-46" fill="#221F1F" points="113.979575 25.8386963 112.821254 21.6344494 112.363773 21.6344494 111.205452 25.8458074 110.022637 21.6344494 109.518538 21.6344494 110.892563 26.4668444 111.527032 26.4668444 112.592119 22.5035852 113.650884 26.4668444 114.286933 26.4668444 115.665699 21.6344494 115.16239 21.6344494"></polygon>
                <path d="M119.864573,25.5841185 C119.328869,26.0092049 118.75998,26.0218469 118.11919,26.028958 L117.496573,26.028958 L117.496573,22.0728099 L118.11919,22.0728099 C118.75998,22.0664889 119.328869,22.0980938 119.858252,22.5105383 C120.35524,22.9024395 120.604128,23.4128593 120.609659,24.0410074 C120.604128,24.6549333 120.348128,25.2048593 119.864573,25.5841185 M118.314351,21.6342914 L117.013017,21.6342914 L117.013017,26.4666864 L118.348326,26.4666864 C119.093412,26.4666864 119.727091,26.3616 120.303881,25.8385383 C120.800869,25.3810568 121.094005,24.7347358 121.094005,24.0410074 C121.094005,23.340958 120.760573,22.6472296 120.211437,22.1968593 C119.65519,21.7512296 119.008079,21.6406123 118.314351,21.6342914" id="Fill-48" fill="#221F1F"></path>
                <path d="M123.90084,23.7137383 C123.429136,23.5825778 122.94558,23.4450963 122.94558,22.8643556 C122.94558,22.4052938 123.305086,22.0197136 123.77679,22.0197136 C124.273778,22.0197136 124.626173,22.3736889 124.658568,22.8643556 L125.162667,22.8643556 C125.168198,22.1240099 124.566914,21.5559111 123.834469,21.5559111 C123.075951,21.5559111 122.462025,22.0789728 122.462025,22.8572444 C122.462025,23.2033185 122.599506,23.5304296 122.866568,23.7595654 C123.108346,23.968158 123.416494,24.0471704 123.718321,24.1253926 C123.990914,24.1972938 124.241383,24.2628741 124.463407,24.4469728 C124.665679,24.6097383 124.796049,24.8712691 124.796049,25.1328 C124.796049,25.6890469 124.344889,26.0872691 123.795753,26.0872691 C123.253728,26.0872691 122.840494,25.6424296 122.827852,25.1130469 L122.310321,25.1130469 C122.30479,25.9568988 122.984296,26.5518617 123.809185,26.5518617 C124.593778,26.5518617 125.279605,25.9371457 125.279605,25.1399111 C125.279605,24.7535407 125.11684,24.3742815 124.828444,24.1253926 C124.54716,23.8701827 124.246914,23.8125037 123.90084,23.7137383" id="Fill-50" fill="#221F1F"></path>
                <g id="Group-54" transform="translate(0.000000, 0.299773)">
                    <mask id="mask-4" fill="white">
                        <use xlink:href="#path-3"></use>
                    </mask>
                    <g id="Clip-53"></g>
                    <path d="M15.1627852,1.80748642 C7.52782222,1.80748642 1.31745185,8.01864691 1.31745185,15.6528198 C1.31745185,23.2877827 7.52782222,29.4989432 15.1627852,29.4989432 C22.7977481,29.4989432 29.0073284,23.2877827 29.0073284,15.6528198 C29.0073284,8.01864691 22.7977481,1.80748642 15.1627852,1.80748642 M15.1627852,30.8144988 C6.80169877,30.8144988 0.000316049383,24.0139062 0.000316049383,15.6528198 C0.000316049383,7.29252346 6.80169877,0.490350617 15.1627852,0.490350617 C23.5238716,0.490350617 30.3252543,7.29252346 30.3252543,15.6528198 C30.3252543,24.0139062 23.5238716,30.8144988 15.1627852,30.8144988" id="Fill-52" fill="#FF6800" mask="url(#mask-4)"></path>
                </g>
                <path d="M12.2854716,12.9513877 C12.8116938,12.9632395 13.3197432,13.0446222 13.8040889,13.1821037 C13.7946074,13.1552395 13.7867062,13.1283753 13.7772247,13.1023012 C13.7377185,12.9948444 13.6990025,12.8858074 13.6673975,12.7751901 C13.6571259,12.7404247 13.6515951,12.7056593 13.6421136,12.671684 C13.6144593,12.5681778 13.5868049,12.4638815 13.5662617,12.3572148 C13.5544099,12.2947951 13.548879,12.2307951 13.5386074,12.1683753 C13.5267556,12.0877827 13.5117432,12.0087704 13.503842,11.9265975 C13.4896198,11.7804247 13.4825086,11.6326716 13.4825086,11.4825481 C13.4825086,8.8838321 15.596879,6.76946173 18.1955951,6.76946173 C19.4582123,6.76946173 20.6031012,7.27119012 21.4501136,8.08185679 L23.1860148,7.98862222 C22.0837926,6.41706667 20.2617679,5.38674568 18.1955951,5.38674568 C14.828879,5.38674568 12.0997926,8.1158321 12.0997926,11.4825481 C12.0997926,11.9898074 12.1685333,12.479684 12.2854716,12.9505975 L12.2854716,12.9513877 Z" id="Fill-55" fill="#FF6800"></path>
                <path d="M12.1458568,15.7094716 C13.1990914,15.7094716 14.1709432,16.0610765 14.9563259,16.6481383 C14.9594864,16.6473481 14.9626469,16.6473481 14.9658074,16.6473481 C15.8649679,17.2114963 16.921363,17.542558 18.0551901,17.5686321 C18.0559802,17.5694222 18.0559802,17.5702123 18.0559802,17.5717926 C18.1033877,17.5725827 18.1484247,17.5781136 18.1958321,17.5781136 C21.4543012,17.5781136 24.1083259,15.0189037 24.2758321,11.8023111 L22.8891654,11.8765827 C22.687684,14.2912 20.6610173,16.1953975 18.1958321,16.1953975 C18.0172642,16.1953975 17.8426469,16.1803852 17.6696099,16.1582617 C17.2303012,16.1092741 16.7459556,15.974163 16.2853136,15.7853235 C15.9597827,15.6391506 15.3561284,15.2472494 15.3498074,15.2472494 C15.2162765,15.1642864 14.9168198,14.9944099 14.9065481,14.9857185 C14.9018074,14.9857185 14.9025975,14.9880889 14.8986469,14.988879 C14.0721778,14.5677432 13.1374617,14.3267556 12.1458568,14.3267556 C8.77914074,14.3267556 6.05005432,17.0550519 6.05005432,20.422558 C6.05005432,23.788484 8.77914074,26.5183605 12.1458568,26.5183605 C15.289758,26.5183605 17.8766222,24.1369284 18.2045235,21.0799407 L16.7925728,21.1747556 C16.4306963,23.4155457 14.4877827,25.1356444 12.1458568,25.1356444 C9.54714074,25.1356444 7.43277037,23.020484 7.43277037,20.422558 C7.43277037,17.8230519 9.54714074,15.7094716 12.1458568,15.7094716" id="Fill-57" fill="#FF6800"></path>
            </g>
        </g>
    </g>
</svg>