<?xml version="1.0" encoding="UTF-8"?>
<svg width="257px" height="37px" viewBox="0 0 257 37" version="1.1" xmlns="http://www.w3.org/2000/svg" xmlns:xlink="http://www.w3.org/1999/xlink">
    <!-- Generator: Sketch 48.2 (47327) - http://www.bohemiancoding.com/sketch -->
    <title>logo_crowd_cast</title>
    <desc>Created with Sketch.</desc>
    <defs></defs>
    <g id="Page-1" stroke="none" stroke-width="1" fill="none" fill-rule="evenodd">
        <g id="logo_crowd_cast" fill-rule="nonzero">
            <g id="Layer_13_画像" transform="translate(43.000000, 5.000000)" fill="#262424">
                <path d="M13.9,4.8 C16.5,4.8 19,6 20.6,8 L26.1,8 C24,3.2 19.2,0.1 13.9,0.2 C6.5,0.4 0.7,6.6 1,14 C1.2,21.1 7,26.8 14.1,26.9 C19.2,26.9 23.9,24 26,19.3 L20.5,19.3 C17.2,22.8 11.8,23 8.3,19.7 C4.8,16.4 4.6,11 7.9,7.5 C9.4,5.8 11.6,4.8 13.9,4.8 Z" id="Shape"></path>
                <path d="M32.5,16.4 L39.2,26.2 L45.1,26.2 L38.1,16.7 C39.8,16.4 41.4,15.5 42.7,14.2 C44,12.6 44.7,10.7 44.8,8.6 C44.8,6.2 43.7,3.9 41.8,2.3 C39.9,0.7 37.6,0.5 35.1,0.5 L27.7,0.5 L27.7,26.1 L32.5,26.1 L32.5,16.4 Z M32.5,5.2 L35.1,5.2 C36.3,5.1 37.6,5.4 38.6,6.1 C39.5,6.8 40,7.9 40,9 C40,10 39.6,11 38.8,11.8 C37.7,12.6 36.4,13 35,12.9 L32.4,12.9 L32.5,5.2 Z" id="Shape"></path>
                <path d="M59.2,0.1 C51.8,0.1 45.8,6.1 45.8,13.5 C45.8,20.9 51.8,26.9 59.2,26.9 C66.6,26.9 72.6,20.9 72.6,13.6 C72.6,6.2 66.6,0.2 59.2,0.1 Z M59.2,22.3 C54.4,22.2 50.6,18.3 50.6,13.5 C50.6,8.8 54.4,4.9 59.2,4.9 C63.9,4.9 67.8,8.7 67.8,13.5 C67.7,18.2 63.9,22.1 59.2,22.3 Z" id="Shape"></path>
                <polygon id="Shape" points="97.4 0.6 91.3 21.6 88.9 21.6 88.9 13.7 84.8 13.7 84.8 21.6 82.4 21.6 76.3 0.6 71.4 0.6 78.9 26.2 94.8 26.2 102.3 0.6"></polygon>
                <path d="M120.1,23.3 C122.9,20.8 124.5,17.3 124.5,13.6 C124.5,9.8 122.9,6.2 120.1,3.6 C117.1,1 113.2,0.6 109.3,0.6 L104,0.6 L104,26.3 L109.5,26.3 C113.4,26.2 117,25.9 120.1,23.3 Z M108.7,21.6 L108.7,5.2 L109.1,5.2 C111.6,5.2 114.2,5.3 116.4,6.7 C118.6,8.3 119.9,10.8 119.8,13.5 C119.8,16 118.7,18.3 116.7,19.8 C114.5,21.4 112,21.5 109.3,21.5 L108.7,21.5 L108.7,21.6 Z" id="Shape"></path>
                <path d="M157.7,19.3 L152.2,19.3 C148.9,22.8 143.5,23 140,19.7 C136.5,16.4 136.3,11 139.6,7.5 C141.2,5.8 143.4,4.8 145.7,4.8 C148.3,4.8 150.8,6 152.4,8 L157.8,8 C155.7,3.2 150.9,0.1 145.6,0.2 C138.2,0.4 132.4,6.6 132.7,14 C132.9,21.1 138.7,26.8 145.8,26.9 C150.9,26.9 155.6,23.9 157.7,19.3 Z" id="Shape"></path>
                <polygon id="Shape" points="171.1 0.6 167.4 0.6 156.7 26.2 161.9 26.2 169.2 7.2 176.6 26.2 181.9 26.2"></polygon>
                <path d="M197.8,18.8 C197.9,16.5 196.9,14.4 195.1,13 C193.6,11.9 191.9,11.1 190.1,10.6 C188.6,10.1 186.8,9.4 186.9,7.5 C186.8,6.1 187.8,4.9 189.2,4.8 C189.3,4.8 189.4,4.8 189.5,4.8 C191,4.8 192.3,5.9 192.4,7.5 L197.3,7.5 C197.2,3.4 193.9,0.2 189.8,0.2 C185.8,-3.88578059e-16 182.4,3.1 182.2,7 C182.1,9 182.8,10.9 184.2,12.4 C185.5,13.6 187,14.4 188.6,14.8 C190.7,15.5 193.1,16.3 193.1,19.1 C193.1,20.9 191.6,22.3 189.8,22.3 C189.8,22.3 189.8,22.3 189.7,22.3 C187.9,22.5 186.3,21.1 186.1,19.3 C186.1,19.2 186.1,19.1 186.1,19.1 L181.1,19.1 C181.3,23.7 185.2,27.2 189.8,27 C194.2,26.7 197.7,23.2 197.8,18.8 Z" id="Shape"></path>
                <polygon id="Shape" points="199 0.6 199 5.2 203.7 5.2 203.7 26.2 208.5 26.2 208.5 5.2 213.2 5.2 213.2 0.6"></polygon>
            </g>
            <g id="Group">
                <path d="M18.5,37 C8.3,37 0,28.7 0,18.5 C0.1,8.3 8.3,0 18.5,0 C28.7,0 37,8.3 37,18.5 C37,28.7 28.7,37 18.5,37 Z" id="Shape" fill="#FF6801"></path>
                <path d="M18.5,2.8 C9.9,2.8 2.7,9.9 2.7,18.6 C2.7,27.3 9.8,34.4 18.5,34.4 C27.2,34.4 34.3,27.3 34.3,18.6 C34.3,9.8 27.2,2.8 18.5,2.8 Z" id="Shape" fill="#FFFFFF"></path>
                <g transform="translate(8.000000, 6.000000)" fill="#FF6801" id="Shape">
                    <path d="M8.8,7.5 C8.8,4.5 11.3,2.1 14.3,2.2 C15.6,2.2 16.9,2.7 17.9,3.6 L19.9,3.5 C17.7,0.3 13.3,-0.4 10.3,1.9 C8.5,3.2 7.4,5.3 7.3,7.6 C7.3,8.1 7.4,8.6 7.5,9.1 C8.1,9.1 8.6,9.2 9,9.4 C9,9.4 8.8,8.6 8.8,7.5 Z"></path>
                    <path d="M19.3,7.8 C19,10.6 16.8,12.8 14,12.8 C13.8,12.8 13.6,12.8 13.4,12.8 C12.9,12.7 12.3,12.6 11.8,12.3 C11.4,12.1 11.1,11.9 10.7,11.7 L10.2,11.4 C6.8,9.7 2.6,11 0.8,14.5 C-0.9,17.9 0.4,22.1 3.9,23.9 C7.3,25.6 11.5,24.3 13.3,20.8 C13.7,20.1 13.9,19.3 14,18.4 L12.4,18.5 C12,21.5 9.2,23.4 6.3,23 C3.3,22.5 1.3,19.8 1.8,16.9 C2.2,14.3 4.6,12.3 7.2,12.3 C8.4,12.3 9.4,12.7 10.4,13.4 C11.5,14 12.6,14.4 13.9,14.5 L14,14.5 C17.7,14.5 20.8,11.6 20.9,7.9 L19.3,7.9 L19.3,7.8 Z"></path>
                </g>
            </g>
        </g>
    </g>
</svg>