<svg id="Layer_1" data-name="Layer 1" xmlns="http://www.w3.org/2000/svg" viewBox="0 0 300 100"><defs><style>.cls-1{fill:#262424;}.cls-2{fill:#ff6801;}.cls-3{fill:#fff;}</style></defs><title>アートボード 2</title><g id="Layer_13_画像" data-name="Layer 13 画像"><path class="cls-1" d="M78.8,39.3a8.64,8.64,0,0,1,6.7,3.2H91a13,13,0,0,0-12.2-7.8A13.35,13.35,0,0,0,79,61.4a13,13,0,0,0,11.9-7.6H85.4A8.63,8.63,0,0,1,72.8,42a8,8,0,0,1,6-2.7Z"/><path class="cls-1" d="M97.4,50.9l6.7,9.8H110l-7-9.5a8.74,8.74,0,0,0,4.6-2.5,9.42,9.42,0,0,0,2.1-5.6,8.27,8.27,0,0,0-3-6.3c-1.9-1.6-4.2-1.8-6.7-1.8H92.6V60.6h4.8Zm0-11.2H100a5.43,5.43,0,0,1,3.5.9,3.7,3.7,0,0,1,1.4,2.9,4,4,0,0,1-1.2,2.8,5.68,5.68,0,0,1-3.8,1.1H97.3Z"/><path class="cls-1" d="M124.1,34.6a13.4,13.4,0,1,0,13.4,13.5,13.55,13.55,0,0,0-13.4-13.5Zm0,22.2a8.77,8.77,0,0,1-8.6-8.8,8.6,8.6,0,1,1,17.2,0h0a9,9,0,0,1-8.6,8.8Z"/><polygon class="cls-1" points="162.3 35.1 156.2 56.1 153.8 56.1 153.8 48.2 149.7 48.2 149.7 56.1 147.3 56.1 141.2 35.1 136.3 35.1 143.8 60.7 159.7 60.7 167.2 35.1 162.3 35.1"/><path class="cls-1" d="M185,57.8a13,13,0,0,0,4.4-9.7,13.63,13.63,0,0,0-4.4-10c-3-2.6-6.9-3-10.8-3h-5.3V60.8h5.5C178.3,60.7,181.9,60.4,185,57.8Zm-11.4-1.7V39.7h.4c2.5,0,5.1.1,7.3,1.5a8,8,0,0,1,3.4,6.8,7.77,7.77,0,0,1-3.1,6.3c-2.2,1.6-4.7,1.7-7.4,1.7h-.6Z"/><path class="cls-1" d="M222.6,53.8h-5.5A8.63,8.63,0,0,1,204.5,42a8.42,8.42,0,0,1,6.1-2.7,8.64,8.64,0,0,1,6.7,3.2h5.4a13,13,0,0,0-12.2-7.8,13.35,13.35,0,1,0,12.1,19.1Z"/><polygon class="cls-1" points="236 35.1 232.3 35.1 221.6 60.7 226.8 60.7 234.1 41.7 241.5 60.7 246.8 60.7 236 35.1"/><path class="cls-1" d="M262.7,53.3a6.88,6.88,0,0,0-2.7-5.8,15.41,15.41,0,0,0-5-2.4c-1.5-.5-3.3-1.2-3.2-3.1a2.48,2.48,0,0,1,2.3-2.7h.3a2.86,2.86,0,0,1,2.9,2.7h4.9a7.45,7.45,0,0,0-7.5-7.3,7.21,7.21,0,0,0-5.6,12.2,10.05,10.05,0,0,0,4.4,2.4c2.1.7,4.5,1.5,4.5,4.3a3.24,3.24,0,0,1-3.3,3.2h-.1a3.34,3.34,0,0,1-3.6-3v-.2h-5a8.29,8.29,0,0,0,8.7,7.9,8.48,8.48,0,0,0,8-8.2Z"/><polygon class="cls-1" points="263.9 35.1 263.9 39.7 268.6 39.7 268.6 60.7 273.4 60.7 273.4 39.7 278.1 39.7 278.1 35.1 263.9 35.1"/></g><path class="cls-2" d="M40.4,66.5A18.5,18.5,0,1,1,58.9,48,18.51,18.51,0,0,1,40.4,66.5Z"/><path class="cls-3" d="M40.4,32.25A15.75,15.75,0,1,0,56.24,48,15.83,15.83,0,0,0,40.4,32.25Z"/><path class="cls-2" d="M38.69,43a5.41,5.41,0,0,1,9.09-3.87l2-.09a6.85,6.85,0,0,0-9.63-1.62,7.29,7.29,0,0,0-3,5.67,9,9,0,0,0,.17,1.54,5.52,5.52,0,0,1,1.54.26A7.2,7.2,0,0,1,38.69,43Z"/><path class="cls-2" d="M49.22,43.32a5.38,5.38,0,0,1-5.31,5h-.63a5.46,5.46,0,0,1-1.62-.45,6.71,6.71,0,0,1-1.08-.63L40,46.92a6.95,6.95,0,1,0,3.78,6.93l-1.62.09a5.37,5.37,0,1,1-10.62-1.62A5.58,5.58,0,0,1,37,47.73a5.39,5.39,0,0,1,3.24,1.08,8,8,0,0,0,3.51,1.08h.18a6.92,6.92,0,0,0,6.93-6.57Z"/></svg>