<?xml version="1.0" encoding="utf-8"?>
<!-- Generator: Adobe Illustrator 22.0.1, SVG Export Plug-In . SVG Version: 6.00 Build 0)  -->
<svg version="1.1" id="side_2_tagline_2" xmlns="http://www.w3.org/2000/svg" xmlns:xlink="http://www.w3.org/1999/xlink" x="0px"
	 y="0px" viewBox="0 0 257 39" style="enable-background:new 0 0 257 39;" xml:space="preserve">
<style type="text/css">
	.st0{fill:none;}
	.st1{fill:#262424;}
	.st2{fill:#FF6801;}
</style>
<title>new</title>
<g>
	<rect class="st0" width="257" height="39"/>
	<g id="_2_tagline_2_side">
		<g id="Layer_13_画像">
			<path class="st1" d="M57.6,10.8c2.6,0,5.1,1.2,6.7,3.2h5.5c-2.1-4.8-6.9-7.9-12.2-7.8c-7.4,0.2-13.2,6.4-12.9,13.8
				c0.2,7.1,6,12.8,13.1,12.9c5.1,0,9.8-2.9,11.9-7.6h-5.5c-3.3,3.5-8.7,3.7-12.2,0.4c-3.5-3.3-3.7-8.7-0.4-12.2
				C53.1,11.8,55.3,10.8,57.6,10.8L57.6,10.8z"/>
			<path class="st1" d="M76.2,22.4l6.7,9.8h5.9l-7-9.5c1.7-0.3,3.3-1.2,4.6-2.5c1.3-1.6,2-3.5,2.1-5.6c0-2.4-1.1-4.7-3-6.3
				c-1.9-1.6-4.2-1.8-6.7-1.8h-7.4v25.6h4.8V22.4z M76.2,11.2h2.6c1.2-0.1,2.5,0.2,3.5,0.9c0.9,0.7,1.4,1.8,1.4,2.9
				c0,1-0.4,2-1.2,2.8c-1.1,0.8-2.4,1.2-3.8,1.1h-2.6L76.2,11.2z"/>
			<path class="st1" d="M102.9,6.1c-7.4,0-13.4,6-13.4,13.4c0,7.4,6,13.4,13.4,13.4c7.4,0,13.4-6,13.4-13.3
				C116.3,12.2,110.3,6.2,102.9,6.1C102.9,6.1,102.9,6.1,102.9,6.1z M102.9,28.3c-4.8-0.1-8.6-4-8.6-8.8c0-4.7,3.8-8.6,8.6-8.6
				c4.7,0,8.6,3.8,8.6,8.6c0,0,0,0,0,0C111.4,24.2,107.6,28.1,102.9,28.3L102.9,28.3z"/>
			<polygon class="st1" points="141.1,6.6 135,27.6 132.6,27.6 132.6,19.7 128.5,19.7 128.5,27.6 126.1,27.6 120,6.6 115.1,6.6 
				122.6,32.2 138.5,32.2 146,6.6 			"/>
			<path class="st1" d="M163.8,29.3c2.8-2.5,4.4-6,4.4-9.7c0-3.8-1.6-7.4-4.4-10c-3-2.6-6.9-3-10.8-3h-5.3v25.7h5.5
				C157.1,32.2,160.7,31.9,163.8,29.3z M152.4,27.6V11.2h0.4c2.5,0,5.1,0.1,7.3,1.5c2.2,1.6,3.5,4.1,3.4,6.8c0,2.5-1.1,4.8-3.1,6.3
				c-2.2,1.6-4.7,1.7-7.4,1.7H152.4z"/>
			<path class="st1" d="M201.4,25.3h-5.5c-3.3,3.5-8.7,3.7-12.2,0.4c-3.5-3.3-3.7-8.7-0.4-12.2c1.6-1.7,3.8-2.7,6.1-2.7
				c2.6,0,5.1,1.2,6.7,3.2h5.4c-2.1-4.8-6.9-7.9-12.2-7.8c-7.4,0.2-13.2,6.4-12.9,13.8c0.2,7.1,6,12.8,13.1,12.9
				C194.6,32.9,199.3,29.9,201.4,25.3z"/>
			<polygon class="st1" points="214.8,6.6 211.1,6.6 200.4,32.2 205.6,32.2 212.9,13.2 220.3,32.2 225.6,32.2 			"/>
			<path class="st1" d="M241.5,24.8c0.1-2.3-0.9-4.4-2.7-5.8c-1.5-1.1-3.2-1.9-5-2.4c-1.5-0.5-3.3-1.2-3.2-3.1
				c-0.1-1.4,0.9-2.6,2.3-2.7c0.1,0,0.2,0,0.3,0c1.5,0,2.8,1.1,2.9,2.7h4.9c-0.1-4.1-3.4-7.3-7.5-7.3c-4-0.2-7.4,2.9-7.6,6.8
				c-0.1,2,0.6,3.9,2,5.4c1.3,1.2,2.8,2,4.4,2.4c2.1,0.7,4.5,1.5,4.5,4.3c0,1.8-1.5,3.2-3.3,3.2c0,0,0,0-0.1,0
				c-1.8,0.2-3.4-1.2-3.6-3c0-0.1,0-0.2,0-0.2h-5c0.2,4.6,4.1,8.1,8.7,7.9C237.9,32.7,241.4,29.2,241.5,24.8L241.5,24.8z"/>
			<polygon class="st1" points="242.7,6.6 242.7,11.2 247.4,11.2 247.4,32.2 252.2,32.2 252.2,11.2 256.9,11.2 256.9,6.6 			"/>
		</g>
		<g id="Layer_12_copy_画像">
			<path class="st2" d="M19.2,38.7c-10.6,0-19.2-8.6-19.2-19.2C0.1,8.9,8.6,0.3,19.2,0.3c10.6,0,19.2,8.6,19.2,19.2
				C38.4,30.1,29.8,38.7,19.2,38.7z M19.2,2C9.6,2,1.7,9.9,1.7,19.5c0,9.7,7.9,17.5,17.6,17.5c9.7,0,17.5-7.9,17.5-17.5
				C36.8,9.8,28.9,2,19.2,2C19.2,2,19.2,2,19.2,2z"/>
			<path class="st2" d="M15.6,15.7c0.7,0,1.3,0.1,1.9,0.3c0,0,0-0.1,0-0.1c0-0.1-0.1-0.3-0.1-0.4v-0.1c0-0.1-0.1-0.3-0.1-0.4v-0.2
				c0-0.1,0-0.2,0-0.3c0-0.2,0-0.4,0-0.6c0-3.3,2.8-6,6.1-5.9c1.5,0,2.9,0.6,4,1.6l2.2-0.1c-2.5-3.5-7.3-4.3-10.7-1.8
				c-2,1.4-3.2,3.8-3.3,6.3c0,0.6,0.1,1.2,0.2,1.8L15.6,15.7z"/>
			<path class="st2" d="M15.4,19.2c1.3,0,2.5,0.4,3.6,1.2l0,0c1.2,0.7,2.5,1.1,3.9,1.2h0.2c4.1,0,7.5-3.2,7.7-7.3L29,14.3
				c-0.3,3.1-2.8,5.5-5.9,5.5c-0.2,0-0.4,0-0.7,0c-0.6-0.1-1.2-0.2-1.8-0.5c-0.4-0.2-0.8-0.4-1.2-0.7l-0.6-0.3l0,0
				c-3.8-1.9-8.4-0.4-10.4,3.4c-1.9,3.8-0.4,8.4,3.4,10.4c3.8,1.9,8.4,0.4,10.4-3.4c0.4-0.8,0.7-1.7,0.8-2.7l-1.8,0.1
				c-0.5,3.3-3.6,5.5-6.8,5c-3.3-0.5-5.5-3.6-5-6.8C9.9,21.4,12.5,19.2,15.4,19.2z"/>
		</g>
	</g>
</g>
</svg>
