<?xml version="1.0" encoding="UTF-8" standalone="no"?>
<svg width="257px" height="39px" viewBox="0 0 257 39" version="1.1" xmlns="http://www.w3.org/2000/svg" xmlns:xlink="http://www.w3.org/1999/xlink">
    <!-- Generator: Sketch 48.2 (47327) - http://www.bohemiancoding.com/sketch -->
    <title>logo_crowd-cast</title>
    <desc>Created with Sketch.</desc>
    <defs></defs>
    <g id="SP" stroke="none" stroke-width="1" fill="none" fill-rule="evenodd">
        <g id="logo_crowd-cast">
            <rect id="Rectangle-path" x="0" y="0" width="257" height="39"></rect>
            <g id="_2_tagline_2_side" fill-rule="nonzero">
                <g id="Layer_13_画像" transform="translate(44.000000, 6.000000)" fill="#262424">
                    <path d="M13.6,4.8 C16.2,4.8 18.7,6 20.3,8 L25.8,8 C23.7,3.2 18.9,0.1 13.6,0.2 C6.2,0.4 0.4,6.6 0.7,14 C0.9,21.1 6.7,26.8 13.8,26.9 C18.9,26.9 23.6,24 25.7,19.3 L20.2,19.3 C16.9,22.8 11.5,23 8,19.7 C4.5,16.4 4.3,11 7.6,7.5 C9.1,5.8 11.3,4.8 13.6,4.8 Z" id="Shape"></path>
                    <path d="M32.2,16.4 L38.9,26.2 L44.8,26.2 L37.8,16.7 C39.5,16.4 41.1,15.5 42.4,14.2 C43.7,12.6 44.4,10.7 44.5,8.6 C44.5,6.2 43.4,3.9 41.5,2.3 C39.6,0.7 37.3,0.5 34.8,0.5 L27.4,0.5 L27.4,26.1 L32.2,26.1 L32.2,16.4 Z M32.2,5.2 L34.8,5.2 C36,5.1 37.3,5.4 38.3,6.1 C39.2,6.8 39.7,7.9 39.7,9 C39.7,10 39.3,11 38.5,11.8 C37.4,12.6 36.1,13 34.7,12.9 L32.1,12.9 L32.2,5.2 Z" id="Shape"></path>
                    <path d="M58.9,0.1 C51.5,0.1 45.5,6.1 45.5,13.5 C45.5,20.9 51.5,26.9 58.9,26.9 C66.3,26.9 72.3,20.9 72.3,13.6 C72.3,6.2 66.3,0.2 58.9,0.1 C58.9,0.1 58.9,0.1 58.9,0.1 Z M58.9,22.3 C54.1,22.2 50.3,18.3 50.3,13.5 C50.3,8.8 54.1,4.9 58.9,4.9 C63.6,4.9 67.5,8.7 67.5,13.5 C67.5,13.5 67.5,13.5 67.5,13.5 C67.4,18.2 63.6,22.1 58.9,22.3 Z" id="Shape"></path>
                    <polygon id="Shape" points="97.1 0.6 91 21.6 88.6 21.6 88.6 13.7 84.5 13.7 84.5 21.6 82.1 21.6 76 0.6 71.1 0.6 78.6 26.2 94.5 26.2 102 0.6"></polygon>
                    <path d="M119.8,23.3 C122.6,20.8 124.2,17.3 124.2,13.6 C124.2,9.8 122.6,6.2 119.8,3.6 C116.8,1 112.9,0.6 109,0.6 L103.7,0.6 L103.7,26.3 L109.2,26.3 C113.1,26.2 116.7,25.9 119.8,23.3 Z M108.4,21.6 L108.4,5.2 L108.8,5.2 C111.3,5.2 113.9,5.3 116.1,6.7 C118.3,8.3 119.6,10.8 119.5,13.5 C119.5,16 118.4,18.3 116.4,19.8 C114.2,21.4 111.7,21.5 109,21.5 L108.4,21.5 L108.4,21.6 Z" id="Shape"></path>
                    <path d="M157.4,19.3 L151.9,19.3 C148.6,22.8 143.2,23 139.7,19.7 C136.2,16.4 136,11 139.3,7.5 C140.9,5.8 143.1,4.8 145.4,4.8 C148,4.8 150.5,6 152.1,8 L157.5,8 C155.4,3.2 150.6,0.1 145.3,0.2 C137.9,0.4 132.1,6.6 132.4,14 C132.6,21.1 138.4,26.8 145.5,26.9 C150.6,26.9 155.3,23.9 157.4,19.3 Z" id="Shape"></path>
                    <polygon id="Shape" points="170.8 0.6 167.1 0.6 156.4 26.2 161.6 26.2 168.9 7.2 176.3 26.2 181.6 26.2"></polygon>
                    <path d="M197.5,18.8 C197.6,16.5 196.6,14.4 194.8,13 C193.3,11.9 191.6,11.1 189.8,10.6 C188.3,10.1 186.5,9.4 186.6,7.5 C186.5,6.1 187.5,4.9 188.9,4.8 C189,4.8 189.1,4.8 189.2,4.8 C190.7,4.8 192,5.9 192.1,7.5 L197,7.5 C196.9,3.4 193.6,0.2 189.5,0.2 C185.5,-3.88578059e-16 182.1,3.1 181.9,7 C181.8,9 182.5,10.9 183.9,12.4 C185.2,13.6 186.7,14.4 188.3,14.8 C190.4,15.5 192.8,16.3 192.8,19.1 C192.8,20.9 191.3,22.3 189.5,22.3 C189.5,22.3 189.5,22.3 189.4,22.3 C187.6,22.5 186,21.1 185.8,19.3 C185.8,19.2 185.8,19.1 185.8,19.1 L180.8,19.1 C181,23.7 184.9,27.2 189.5,27 C193.9,26.7 197.4,23.2 197.5,18.8 Z" id="Shape"></path>
                    <polygon id="Shape" points="198.7 0.6 198.7 5.2 203.4 5.2 203.4 26.2 208.2 26.2 208.2 5.2 212.9 5.2 212.9 0.6"></polygon>
                </g>
                <g id="Layer_12_copy_画像" fill="#FF6801">
                    <path d="M19.2,38.7 C8.6,38.7 0,30.1 0,19.5 C0.1,8.9 8.6,0.3 19.2,0.3 C29.8,0.3 38.4,8.9 38.4,19.5 C38.4,30.1 29.8,38.7 19.2,38.7 Z M19.2,2 C9.6,2 1.7,9.9 1.7,19.5 C1.7,29.2 9.6,37 19.3,37 C29,37 36.8,29.1 36.8,19.5 C36.8,9.8 28.9,2 19.2,2 C19.2,2 19.2,2 19.2,2 Z" id="Shape"></path>
                    <path d="M15.6,15.7 C16.3,15.7 16.9,15.8 17.5,16 C17.5,16 17.5,15.9 17.5,15.9 C17.5,15.8 17.4,15.6 17.4,15.5 L17.4,15.4 C17.4,15.3 17.3,15.1 17.3,15 L17.3,14.8 C17.3,14.7 17.3,14.6 17.3,14.5 C17.3,14.3 17.3,14.1 17.3,13.9 C17.3,10.6 20.1,7.9 23.4,8 C24.9,8 26.3,8.6 27.4,9.6 L29.6,9.5 C27.1,6 22.3,5.2 18.9,7.7 C16.9,9.1 15.7,11.5 15.6,14 C15.6,14.6 15.7,15.2 15.8,15.8 L15.6,15.7 Z" id="Shape"></path>
                    <path d="M15.4,19.2 C16.7,19.2 17.9,19.6 19,20.4 C20.2,21.1 21.5,21.5 22.9,21.6 L23.1,21.6 C27.2,21.6 30.6,18.4 30.8,14.3 L29,14.3 C28.7,17.4 26.2,19.8 23.1,19.8 C22.9,19.8 22.7,19.8 22.4,19.8 C21.8,19.7 21.2,19.6 20.6,19.3 C20.2,19.1 19.8,18.9 19.4,18.6 L18.8,18.3 C15,16.4 10.4,17.9 8.4,21.7 C6.5,25.5 8,30.1 11.8,32.1 C15.6,34 20.2,32.5 22.2,28.7 C22.6,27.9 22.9,27 23,26 L21.2,26.1 C20.7,29.4 17.6,31.6 14.4,31.1 C11.1,30.6 8.9,27.5 9.4,24.3 C9.9,21.4 12.5,19.2 15.4,19.2 Z" id="Shape"></path>
                </g>
            </g>
        </g>
    </g>
</svg>